<?xml version="1.0" encoding="utf-8"?>
<svg xmlns="http://www.w3.org/2000/svg" height="48" version="1.0" viewBox="0 0 4096 4096" width="48">
<path d="M1432.20 1693.20 c-0.66 0.66 -1.20 1.88 -1.20 2.72 0.00 0.84 -2.45 4.01&#xA;-5.45 7.05 -4.06 4.12 -7.78 9.86 -14.60 22.53 -5.03 9.35 -10.83 19.70&#xA;-12.89 23.00 -2.06 3.30 -7.37 12.75 -11.80 21.00 -4.43 8.25 -10.87 20.18&#xA;-14.32 26.50 -3.44 6.32 -8.07 14.88 -10.27 19.00 -2.21 4.12 -5.02 8.85&#xA;-6.25 10.50 -1.23 1.65 -4.53 6.94 -7.33 11.75 -2.80 4.81 -7.38 12.65 -10.17&#xA;17.42 -2.79 4.77 -10.69 19.25 -17.57 32.19 -6.87 12.94 -14.88 27.60 -17.79&#xA;32.58 -2.91 4.98 -9.01 16.03 -13.55 24.56 -4.55 8.53 -15.55 27.20 -24.46&#xA;41.50 -8.91 14.30 -19.35 31.40 -23.22 38.00 -3.86 6.60 -9.28 16.05 -12.04&#xA;21.00 -2.76 4.95 -6.00 11.25 -7.21 14.00 -1.21 2.75 -4.59 9.28 -7.52 14.50&#xA;-2.93 5.22 -8.24 14.68 -11.79 21.00 -3.55 6.32 -13.75 23.83 -22.65 38.91&#xA;-8.91 15.07 -16.60 29.25 -17.10 31.50 -0.55 2.48 -2.04 5.08 -3.79 6.59&#xA;-1.59 1.38 -5.27 7.00 -8.19 12.50 -2.92 5.50 -5.86 10.68 -6.54 11.50 -0.68&#xA;0.82 -3.04 4.88 -5.23 9.00 -7.24 13.58 -21.39 38.83 -31.39 56.00 -4.00 6.88&#xA;-7.77 13.91 -8.36 15.63 -0.60 1.72 -1.63 3.79 -2.30 4.60 -0.98 1.18 -0.82&#xA;1.82 0.80 3.29 1.93 1.74 2.18 1.75 5.46 0.19 1.89 -0.90 6.90 -4.92 11.14&#xA;-8.92 4.23 -4.01 10.17 -10.66 13.20 -14.79 3.03 -4.12 8.05 -10.20 11.17&#xA;-13.50 3.12 -3.30 6.47 -7.24 7.45 -8.75 0.98 -1.51 2.25 -2.75 2.81 -2.75&#xA;0.64 0.00 0.84 2.69 0.54 7.25 -0.34 5.12 -1.23 8.72 -3.05 12.25 -1.46 2.84&#xA;-7.05 9.54 -12.92 15.50 -7.47 7.58 -11.36 12.45 -13.98 17.50 -2.00 3.85&#xA;-5.01 12.00 -6.70 18.11 -1.69 6.11 -5.14 15.34 -7.68 20.50 l-4.62 9.39 0.47&#xA;9.00 c0.27 5.17 -0.11 12.83 -0.90 18.00 -0.75 4.95 -1.38 13.81 -1.39 19.68&#xA;-0.01 5.87 0.46 14.20 1.05 18.50 0.58 4.30 1.75 10.52 2.59 13.82 0.84 3.30&#xA;3.14 10.05 5.11 15.00 3.43 8.62 3.61 9.68 4.20 25.00 l0.62 16.00 6.24 11.65&#xA;c4.12 7.69 6.73 13.99 7.68 18.50 0.79 3.77 1.72 12.02 2.06 18.35 0.56 10.44&#xA;0.37 12.42 -2.07 21.50 -1.47 5.50 -3.33 13.82 -4.12 18.50 -0.79 4.68 -1.98&#xA;16.15 -2.63 25.50 -0.66 9.35 -1.20 21.72 -1.22 27.50 -0.02 10.05 0.14 10.86&#xA;3.82 19.00 2.11 4.68 6.30 14.54 9.32 21.93 3.01 7.38 6.86 16.16 8.54 19.50&#xA;1.68 3.34 6.00 10.29 9.59 15.45 3.59 5.16 7.57 11.91 8.84 15.00 1.27 3.09&#xA;2.32 7.45 2.34 9.69 0.01 2.24 0.52 6.74 1.12 10.00 0.60 3.26 2.20 8.57 3.56&#xA;11.79 1.35 3.22 3.55 10.79 4.89 16.83 1.33 6.03 3.37 13.98 4.53 17.65 1.70&#xA;5.40 2.38 11.91 3.56 34.17 1.11 20.99 1.20 29.04 0.36 34.00 -0.61 3.57&#xA;-2.39 11.68 -3.97 18.00 -1.58 6.32 -3.57 17.12 -4.43 24.00 -0.86 6.88 -2.00&#xA;17.53 -2.53 23.68 -0.53 6.15 -1.68 14.02 -2.56 17.50 -0.88 3.48 -3.10 10.59&#xA;-4.94 15.82 -1.84 5.22 -4.94 16.03 -6.89 24.00 -1.95 7.97 -6.10 21.93 -9.22&#xA;31.00 -3.12 9.07 -6.75 18.62 -8.06 21.22 -1.31 2.60 -7.01 9.61 -12.65 15.58&#xA;-9.31 9.85 -11.12 12.43 -19.45 27.78 -5.05 9.31 -10.36 20.52 -11.79 24.92&#xA;-1.43 4.40 -3.67 14.35 -4.97 22.10 -1.30 7.76 -3.58 19.68 -5.06 26.50 -1.48&#xA;6.82 -4.40 19.37 -6.49 27.90 -2.09 8.53 -4.95 21.80 -6.36 29.50 -1.41 7.70&#xA;-3.49 20.30 -4.62 28.00 -1.13 7.70 -2.70 17.38 -3.49 21.50 -0.92 4.80 -1.45&#xA;14.34 -1.48 26.50 -0.03 14.33 -0.55 22.06 -2.11 31.48 -1.20 7.24 -1.79&#xA;13.96 -1.41 16.00 0.36 1.94 1.93 6.45 3.48 10.02 1.56 3.57 3.34 9.43 3.96&#xA;13.00 0.62 3.57 1.61 8.97 2.20 12.00 0.59 3.03 1.72 6.75 2.50 8.27 0.78&#xA;1.52 4.32 5.84 7.86 9.60 3.54 3.76 8.19 8.04 10.31 9.51 2.13 1.48 9.23 4.43&#xA;15.77 6.58 6.55 2.14 15.60 5.26 20.13 6.93 4.52 1.67 14.87 4.18 23.00 5.57&#xA;8.13 1.39 21.94 4.44 30.69 6.78 8.76 2.34 16.09 4.77 16.30 5.41 0.70 2.13&#xA;-13.55 4.55 -31.22 5.30 -15.26 0.65 -17.68 1.00 -23.61 3.43 -3.64 1.49&#xA;-7.85 4.00 -9.36 5.58 -1.51 1.58 -2.57 3.42 -2.34 4.09 0.22 0.67 2.41 1.33&#xA;4.86 1.46 2.45 0.13 114.70 0.58 249.45 0.98 134.75 0.41 245.18 0.91 245.41&#xA;1.11 0.22 0.20 1.01 -0.13 1.75 -0.74 0.74 -0.61 1.34 -2.10 1.34 -3.31 0.00&#xA;-1.21 -0.67 -4.44 -1.48 -7.17 -0.81 -2.74 -2.90 -7.13 -4.65 -9.76 -1.74&#xA;-2.63 -5.42 -7.25 -8.18 -10.27 -2.76 -3.01 -7.58 -7.46 -10.72 -9.88 -3.14&#xA;-2.42 -11.06 -7.03 -17.59 -10.24 -6.53 -3.22 -19.08 -9.60 -27.88 -14.19&#xA;-8.80 -4.59 -17.89 -9.86 -20.20 -11.72 -2.31 -1.86 -7.20 -7.08 -10.86&#xA;-11.60 -3.66 -4.52 -7.79 -10.64 -9.18 -13.60 -2.31 -4.92 -2.47 -6.14 -1.92&#xA;-14.50 0.33 -5.02 1.04 -14.30 1.59 -20.63 0.54 -6.32 1.94 -17.34 3.10&#xA;-24.48 1.91 -11.72 2.00 -13.97 0.90 -23.21 -0.67 -5.63 -0.98 -13.08 -0.70&#xA;-16.55 0.29 -3.64 1.46 -8.22 2.75 -10.79 1.23 -2.46 5.43 -8.73 9.32 -13.94&#xA;6.16 -8.25 7.13 -10.12 7.49 -14.50 0.23 -2.78 -0.30 -7.77 -1.19 -11.17&#xA;-0.88 -3.38 -1.59 -8.10 -1.59 -10.50 0.00 -2.40 1.37 -9.08 3.04 -14.86 1.67&#xA;-5.78 3.74 -15.00 4.61 -20.50 0.86 -5.50 3.37 -15.62 5.57 -22.50 3.32&#xA;-10.37 4.13 -14.56 4.77 -24.62 0.70 -11.08 1.24 -13.48 6.27 -28.00 3.03&#xA;-8.73 6.97 -19.93 8.76 -24.88 2.53 -7.00 3.42 -11.45 4.02 -20.00 0.63 -8.94&#xA;1.46 -12.87 4.43 -21.00 7.94 -21.70 8.64 -24.19 9.47 -34.00 0.47 -5.50 1.17&#xA;-10.90 1.55 -12.00 0.39 -1.10 3.34 -7.62 6.56 -14.50 3.22 -6.88 6.97 -16.38&#xA;8.32 -21.11 1.36 -4.74 2.95 -12.08 3.54 -16.32 0.59 -4.24 1.07 -13.19 1.07&#xA;-19.89 -0.00 -6.70 -0.63 -16.00 -1.39 -20.68 -0.76 -4.68 -2.83 -13.90 -4.61&#xA;-20.49 -2.80 -10.40 -3.16 -13.12 -2.74 -20.50 0.29 -5.11 1.54 -11.90 3.13&#xA;-17.01 1.45 -4.68 3.19 -10.90 3.85 -13.84 1.16 -5.12 1.09 -5.56 -1.68&#xA;-10.50 -1.59 -2.84 -4.23 -7.75 -5.88 -10.92 -2.69 -5.19 -3.07 -7.09 -3.78&#xA;-19.00 -0.43 -7.28 -1.31 -16.83 -1.95 -21.23 -0.78 -5.37 -0.94 -13.29 -0.48&#xA;-24.07 0.62 -14.41 0.47 -16.99 -1.45 -25.00 -1.17 -4.91 -3.24 -14.44 -4.58&#xA;-21.17 -1.35 -6.73 -2.45 -14.15 -2.45 -16.50 0.00 -2.35 0.90 -7.42 2.00&#xA;-11.26 1.10 -3.85 2.00 -8.02 2.00 -9.27 0.00 -1.25 -1.13 -5.50 -2.50 -9.44&#xA;-2.34 -6.70 -2.53 -8.73 -2.94 -31.23 -0.39 -21.57 -0.70 -25.15 -3.00 -34.56&#xA;-1.41 -5.78 -2.85 -13.46 -3.19 -17.09 -0.40 -4.28 0.10 -12.32 1.45 -23.00&#xA;1.14 -9.03 2.55 -21.81 3.13 -28.41 0.90 -10.22 0.77 -14.52 -0.90 -29.00&#xA;-1.12 -9.77 -3.41 -22.74 -5.36 -30.50 -1.87 -7.43 -4.88 -16.43 -6.68 -20.00&#xA;-1.80 -3.57 -6.30 -11.22 -10.01 -17.00 -3.70 -5.78 -8.66 -14.32 -11.01&#xA;-19.00 -2.35 -4.68 -5.37 -11.43 -6.72 -15.00 -1.35 -3.57 -3.34 -10.32 -4.41&#xA;-15.00 -1.44 -6.25 -2.19 -14.85 -2.85 -32.50 -0.49 -13.20 -1.64 -29.84&#xA;-2.56 -36.97 -1.25 -9.68 -1.52 -16.91 -1.09 -28.50 0.32 -8.54 1.03 -24.08&#xA;1.57 -34.53 0.54 -10.45 1.46 -22.15 2.06 -25.99 0.77 -4.98 0.77 -10.30 0.01&#xA;-18.50 -0.59 -6.33 -1.49 -13.31 -2.01 -15.51 -0.52 -2.20 -0.95 -7.42 -0.96&#xA;-11.60 -0.02 -5.59 0.76 -10.22 2.94 -17.50 1.63 -5.44 3.67 -15.07 4.54&#xA;-21.40 0.86 -6.32 2.05 -14.66 2.64 -18.53 0.91 -5.92 0.74 -9.19 -1.04&#xA;-20.72 -1.16 -7.53 -2.11 -17.41 -2.12 -21.97 -0.00 -4.56 -0.48 -11.21 -1.05&#xA;-14.78 -0.58 -3.57 -4.01 -15.50 -7.63 -26.50 -3.62 -11.00 -8.57 -24.50&#xA;-11.01 -30.00 -2.44 -5.50 -5.04 -12.70 -5.77 -16.00 -0.74 -3.30 -1.64&#xA;-10.07 -1.99 -15.03 -0.46 -6.37 -0.22 -11.13 0.83 -16.13 0.81 -3.90 4.20&#xA;-13.03 7.54 -20.28 3.33 -7.25 7.04 -14.57 8.25 -16.26 2.02 -2.83 2.06 -3.17&#xA;0.52 -4.30 -0.92 -0.67 -1.67 -1.90 -1.67 -2.72 0.00 -0.83 -0.95 -2.71 -2.11&#xA;-4.18 -1.16 -1.47 -4.43 -7.27 -7.27 -12.88 -3.87 -7.64 -18.66 -35.14 -28.64&#xA;-53.21 -4.25 -7.70 -13.14 -24.12 -19.74 -36.50 -6.61 -12.38 -14.27 -27.00&#xA;-17.04 -32.50 -2.76 -5.50 -6.47 -11.46 -8.23 -13.25 -1.77 -1.79 -3.73 -3.25&#xA;-4.35 -3.25 -0.63 0.00 -1.70 -0.90 -2.39 -2.00 -0.69 -1.10 -1.83 -2.00&#xA;-2.54 -2.00 -0.71 0.00 -1.83 0.54 -2.49 1.20z" fill="#4e79e4" fill-rule="evenodd" stroke="#4e79e4" stroke-linejoin="round" stroke-width="0.80"/>
<path d="M2018.26 644.25 c-1.15 1.24 -9.15 13.95 -17.78 28.25 -8.64 14.30 -20.22&#xA;33.88 -25.75 43.50 -10.21 17.77 -21.74 38.22 -28.21 50.00 -3.77 6.88 -13.47&#xA;23.53 -21.54 37.00 -8.07 13.47 -17.82 29.90 -21.67 36.50 -3.84 6.60 -9.93&#xA;17.40 -13.53 24.00 -3.60 6.60 -13.19 24.38 -21.31 39.50 -8.12 15.12 -18.56&#xA;34.03 -23.22 42.00 -4.65 7.97 -8.81 14.95 -9.24 15.50 -0.43 0.55 -6.52&#xA;11.57 -13.53 24.50 -7.01 12.93 -15.68 28.68 -19.26 35.00 -3.58 6.32 -9.77&#xA;17.12 -13.76 24.00 -3.99 6.88 -9.26 16.10 -11.72 20.50 -11.99 21.49 -42.19&#xA;75.39 -61.91 110.50 -5.24 9.32 -26.07 45.71 -36.94 64.51 -5.41 9.36 -10.37&#xA;18.58 -11.03 20.50 -0.66 1.92 -2.20 4.84 -3.42 6.49 -1.22 1.65 -3.34 5.25&#xA;-4.70 8.00 -1.37 2.75 -2.81 6.12 -3.21 7.50 -0.40 1.38 -1.89 4.92 -3.31&#xA;7.88 -1.56 3.25 -2.61 7.21 -2.65 10.00 -0.10 6.51 5.18 17.33 11.29 23.12&#xA;2.61 2.47 6.33 7.43 8.27 11.00 1.94 3.57 3.81 8.19 4.14 10.26 0.33 2.07&#xA;1.30 4.46 2.15 5.31 0.85 0.85 3.57 4.17 6.04 7.39 2.47 3.21 8.08 11.90&#xA;12.46 19.30 4.38 7.40 12.92 22.53 18.97 33.61 6.05 11.08 15.33 26.74 20.61&#xA;34.79 5.28 8.05 11.44 18.29 13.68 22.74 2.24 4.46 5.15 10.94 6.45 14.42&#xA;1.31 3.47 3.55 8.65 4.99 11.50 1.44 2.85 5.14 9.38 8.23 14.50 3.09 5.12&#xA;6.52 10.96 7.62 12.97 1.10 2.02 6.23 11.10 11.39 20.19 11.88 20.90 28.94&#xA;51.37 33.88 60.49 3.56 6.58 7.51 13.60 8.77 15.61 1.26 2.00 8.46 14.84&#xA;15.98 28.54 7.53 13.69 16.61 30.20 20.18 36.69 3.57 6.49 7.59 13.09 8.92&#xA;14.68 1.33 1.59 2.93 4.38 3.54 6.21 0.61 1.83 4.09 8.67 7.72 15.20 3.64&#xA;6.53 7.62 12.97 8.86 14.30 1.24 1.34 2.25 3.02 2.25 3.74 0.00 0.72 3.23&#xA;6.66 7.18 13.20 3.95 6.54 10.18 17.06 13.86 23.38 3.67 6.32 8.48 14.43&#xA;10.68 18.00 2.20 3.57 11.87 20.68 21.50 38.00 9.62 17.32 19.89 36.00 22.81&#xA;41.50 2.92 5.50 11.94 21.93 20.03 36.50 8.09 14.57 18.97 34.15 24.17 43.50&#xA;5.20 9.35 15.54 27.57 22.98 40.50 7.44 12.93 17.71 31.38 22.81 41.00 5.11&#xA;9.62 11.76 22.00 14.79 27.50 3.03 5.50 12.12 21.03 20.21 34.50 8.08 13.47&#xA;18.13 30.66 22.33 38.19 4.20 7.53 12.85 23.84 19.23 36.25 6.38 12.41 12.17&#xA;22.89 12.86 23.31 0.69 0.41 1.70 1.58 2.25 2.59 0.90 1.65 1.40 1.38 5.04&#xA;-2.76 2.40 -2.73 4.50 -6.39 5.16 -9.03 0.61 -2.44 1.11 -7.50 1.11 -11.24&#xA;-0.00 -3.74 -0.91 -10.63 -2.02 -15.31 -1.11 -4.68 -3.09 -11.65 -4.41 -15.50&#xA;-1.32 -3.85 -4.27 -12.95 -6.57 -20.23 -2.67 -8.45 -5.57 -15.39 -8.03 -19.20&#xA;-2.12 -3.28 -6.33 -8.66 -9.34 -11.94 -3.02 -3.28 -6.63 -7.70 -8.04 -9.82&#xA;-2.04 -3.08 -2.88 -6.36 -4.17 -16.32 -0.93 -7.14 -3.07 -17.09 -5.02 -23.31&#xA;-1.87 -5.97 -3.40 -12.62 -3.40 -14.80 0.00 -2.17 0.65 -5.51 1.45 -7.42 0.80&#xA;-1.91 3.50 -6.34 6.00 -9.85 2.51 -3.51 5.46 -8.42 6.56 -10.91 1.70 -3.83&#xA;1.96 -6.33 1.75 -16.39 l-0.25 -11.87 6.50 -13.36 c3.57 -7.35 7.45 -14.65&#xA;8.62 -16.24 1.16 -1.58 5.91 -5.74 10.54 -9.23 4.63 -3.49 11.15 -9.33 14.48&#xA;-12.97 3.33 -3.64 7.44 -9.21 9.12 -12.38 1.68 -3.17 3.83 -8.45 4.78 -11.72&#xA;1.47 -5.09 1.62 -8.39 1.01 -22.70 -0.48 -11.35 -0.32 -19.80 0.48 -26.21&#xA;1.00 -7.93 0.94 -11.47 -0.36 -21.80 -1.15 -9.21 -1.48 -19.94 -1.29 -42.33&#xA;0.23 -27.06 0.46 -30.71 2.35 -37.20 1.15 -3.96 2.40 -9.62 2.77 -12.58 0.46&#xA;-3.67 -0.15 -11.27 -1.90 -23.80 -2.07 -14.82 -2.61 -23.01 -2.79 -41.92&#xA;-0.12 -12.93 0.14 -31.38 0.58 -41.00 0.63 -13.92 0.47 -19.94 -0.80 -29.46&#xA;-0.88 -6.58 -1.60 -16.70 -1.60 -22.50 -0.00 -5.80 0.51 -15.30 1.14 -21.12&#xA;0.98 -9.07 0.90 -11.99 -0.57 -20.50 -4.64 -26.85 -4.67 -27.32 -4.84 -82.92&#xA;-0.14 -45.16 0.10 -55.75 1.45 -64.68 1.37 -9.10 1.47 -14.52 0.69 -36.50&#xA;-0.51 -14.20 -0.81 -34.59 -0.68 -45.32 0.14 -11.02 -0.32 -24.93 -1.06&#xA;-32.00 -0.88 -8.33 -1.08 -17.24 -0.62 -26.72 0.45 -9.24 0.27 -17.82 -0.52&#xA;-24.50 -1.04 -8.80 -0.97 -12.49 0.45 -25.58 1.17 -10.75 2.59 -18.19 4.78&#xA;-25.00 2.57 -8.00 3.10 -11.28 3.06 -18.70 -0.04 -6.32 -0.70 -11.08 -2.23&#xA;-16.00 -1.43 -4.60 -2.46 -11.46 -2.99 -20.00 -0.48 -7.69 -1.44 -14.51 -2.36&#xA;-16.69 -0.85 -2.03 -3.38 -5.68 -5.62 -8.11 -2.67 -2.90 -4.08 -5.35 -4.08&#xA;-7.13 0.00 -1.49 1.98 -6.45 4.39 -11.03 2.42 -4.58 4.70 -10.12 5.07 -12.31&#xA;0.43 -2.53 -0.11 -8.27 -1.46 -15.72 -1.17 -6.46 -3.25 -15.62 -4.61 -20.37&#xA;-1.36 -4.75 -3.80 -11.47 -5.41 -14.94 -2.08 -4.48 -5.29 -8.68 -11.07 -14.50&#xA;-5.49 -5.53 -9.07 -10.15 -10.99 -14.19 -1.57 -3.30 -3.98 -10.28 -5.37&#xA;-15.50 -1.38 -5.22 -2.94 -13.59 -3.46 -18.60 -0.52 -5.00 -1.64 -10.78 -2.50&#xA;-12.84 -0.86 -2.06 -3.75 -6.51 -6.43 -9.90 -2.68 -3.39 -5.42 -7.21 -6.09&#xA;-8.49 -1.02 -1.95 -0.89 -3.20 0.81 -7.50 1.12 -2.84 2.11 -5.84 2.20 -6.66&#xA;0.09 -0.82 0.11 -2.05 0.05 -2.71 -0.07 -0.67 -2.51 -3.89 -5.44 -7.17 -2.93&#xA;-3.28 -5.85 -7.74 -6.50 -9.90 -0.65 -2.17 -1.20 -7.72 -1.21 -12.33 -0.02&#xA;-4.61 -0.68 -13.11 -1.47 -18.88 -0.79 -5.78 -1.45 -12.86 -1.47 -15.75 -0.03&#xA;-4.15 0.30 -5.25 1.56 -5.25 0.88 0.00 2.79 0.86 4.25 1.92 1.46 1.05 7.19&#xA;6.38 12.74 11.84 5.55 5.46 11.03 10.17 12.18 10.47 1.38 0.36 2.81 -0.21&#xA;4.20 -1.69 1.87 -1.99 1.93 -2.38 0.57 -3.51 -0.84 -0.70 -1.53 -1.97 -1.53&#xA;-2.83 0.00 -0.86 -3.23 -7.44 -7.17 -14.63 -10.22 -18.63 -23.36 -42.10&#xA;-28.03 -50.07 -3.54 -6.05 -7.57 -12.80 -8.95 -15.00 -1.38 -2.20 -9.18&#xA;-15.47 -17.34 -29.50 -8.16 -14.03 -21.23 -36.30 -29.05 -49.50 -7.82 -13.20&#xA;-16.96 -27.71 -20.33 -32.25 -4.61 -6.22 -6.69 -8.25 -8.44 -8.25 -1.28 0.00&#xA;-3.27 1.01 -4.41 2.25z" fill="#ea6392" fill-rule="evenodd" stroke="#ea6392" stroke-linejoin="round" stroke-width="0.80"/>
<path d="M1151.09 2214.55 c-1.32 1.95 -3.70 7.19 -5.28 11.65 -1.58 4.46 -4.40 10.18&#xA;-6.26 12.71 -1.86 2.53 -5.04 6.17 -7.06 8.09 -2.02 1.93 -6.33 7.17 -9.58&#xA;11.66 -3.25 4.49 -8.28 10.29 -11.16 12.88 -2.89 2.60 -6.60 5.30 -8.25 6.02&#xA;-1.65 0.71 -3.80 1.54 -4.79 1.85 -0.98 0.31 -3.82 3.83 -6.31 7.82 -2.49&#xA;4.00 -7.03 11.54 -10.09 16.77 -3.30 5.64 -18.94 33.09 -27.64 48.50 -2.17&#xA;3.85 -8.21 15.10 -13.43 25.00 -5.21 9.90 -11.98 22.28 -15.03 27.50 -6.29&#xA;10.76 -14.87 24.94 -20.13 33.24 -3.39 5.36 -11.76 20.35 -18.60 33.31 -6.84&#xA;12.96 -13.81 25.30 -15.48 27.42 -1.68 2.12 -4.45 7.37 -6.17 11.69 -1.72&#xA;4.31 -5.26 10.76 -7.86 14.34 -2.61 3.57 -5.71 8.44 -6.91 10.81 -1.20 2.37&#xA;-3.67 6.65 -5.49 9.50 -1.83 2.85 -7.57 12.61 -12.77 21.69 -5.20 9.07 -12.74&#xA;22.57 -16.77 30.00 -4.03 7.43 -11.69 21.15 -17.04 30.50 -5.35 9.35 -13.65&#xA;24.43 -18.46 33.50 -4.81 9.07 -10.07 18.07 -11.68 20.00 -1.62 1.93 -4.11&#xA;5.97 -5.55 9.00 -1.44 3.03 -4.72 8.65 -7.29 12.50 -2.57 3.85 -8.86 14.43&#xA;-13.98 23.50 -5.12 9.07 -12.56 22.12 -16.54 29.00 -3.98 6.88 -13.20 23.53&#xA;-20.49 37.00 -7.29 13.47 -17.32 31.93 -22.29 41.00 -4.97 9.07 -16.08 28.65&#xA;-24.70 43.50 -8.61 14.85 -17.04 29.47 -18.73 32.50 -1.68 3.03 -9.25 17.43&#xA;-16.81 32.00 -7.56 14.57 -16.67 31.90 -20.24 38.50 -3.57 6.60 -11.55 20.55&#xA;-17.73 31.00 -6.18 10.45 -14.60 24.85 -18.70 32.00 -4.11 7.15 -11.32 20.20&#xA;-16.02 29.00 -4.70 8.80 -14.30 26.80 -21.33 40.00 -7.03 13.20 -18.94 34.80&#xA;-26.47 48.00 -7.53 13.20 -16.51 28.95 -19.96 35.00 -3.45 6.05 -7.99 13.97&#xA;-10.10 17.60 -2.11 3.63 -7.30 13.31 -11.54 21.50 -4.24 8.19 -11.85 22.10&#xA;-16.91 30.90 -5.07 8.80 -12.68 22.30 -16.93 30.00 -4.25 7.70 -11.42 20.75&#xA;-15.95 29.00 -4.53 8.25 -11.91 20.89 -16.41 28.09 -4.50 7.20 -8.18 13.56&#xA;-8.18 14.13 0.00 0.57 -0.75 1.65 -1.67 2.41 -0.92 0.75 -4.29 5.36 -7.50&#xA;10.23 -3.21 4.87 -5.83 9.56 -5.83 10.41 0.00 0.85 -1.06 2.94 -2.36 4.64&#xA;-1.30 1.70 -3.77 5.89 -5.50 9.32 -1.73 3.42 -3.14 6.85 -3.14 7.63 -0.00&#xA;0.77 -0.67 1.96 -1.49 2.64 -0.82 0.68 -1.17 1.75 -0.79 2.37 0.39 0.63 0.94&#xA;2.94 1.24 5.14 0.51 3.83 0.70 4.02 4.54 4.37 2.20 0.20 16.60 0.29 32.00&#xA;0.21 15.40 -0.09 41.73 -0.70 58.50 -1.35 18.60 -0.72 64.84 -1.12 118.50&#xA;-1.00 48.40 0.10 171.15 0.32 272.79 0.48 146.21 0.24 184.95 0.04 185.55&#xA;-0.94 0.42 -0.68 3.67 -2.45 7.21 -3.92 5.78 -2.40 8.20 -2.75 23.45 -3.39&#xA;9.60 -0.40 19.95 -1.41 23.77 -2.32 3.72 -0.89 8.48 -2.49 10.57 -3.55 2.09&#xA;-1.06 4.39 -2.65 5.12 -3.53 1.11 -1.34 1.02 -1.92 -0.57 -3.68 -1.04 -1.15&#xA;-3.46 -2.89 -5.39 -3.87 -1.92 -0.98 -11.44 -3.85 -21.14 -6.37 -9.70 -2.52&#xA;-23.26 -5.49 -30.13 -6.60 -6.87 -1.10 -16.26 -3.40 -20.86 -5.10 -4.60 -1.70&#xA;-13.92 -4.90 -20.70 -7.11 -9.61 -3.13 -13.45 -4.94 -17.41 -8.17 -2.79 -2.29&#xA;-6.51 -6.23 -8.26 -8.78 -3.03 -4.41 -3.76 -6.98 -6.54 -22.88 -0.62 -3.57&#xA;-2.41 -9.43 -3.96 -13.00 -1.56 -3.57 -3.12 -8.08 -3.48 -10.02 -0.38 -2.04&#xA;0.22 -8.76 1.41 -16.00 1.56 -9.41 2.08 -17.14 2.11 -31.48 0.03 -12.16 0.56&#xA;-21.70 1.48 -26.50 0.79 -4.12 2.36 -13.80 3.49 -21.50 1.13 -7.70 3.21&#xA;-20.30 4.62 -28.00 1.41 -7.70 4.27 -20.97 6.36 -29.50 2.09 -8.53 5.01&#xA;-21.08 6.49 -27.90 1.48 -6.82 3.76 -18.74 5.06 -26.50 1.30 -7.76 3.54&#xA;-17.70 4.97 -22.10 1.43 -4.40 6.74 -15.61 11.79 -24.92 8.33 -15.35 10.14&#xA;-17.93 19.45 -27.78 5.65 -5.97 11.34 -12.99 12.65 -15.58 1.31 -2.60 4.94&#xA;-12.14 8.06 -21.22 3.12 -9.07 7.27 -23.03 9.22 -31.00 1.95 -7.97 5.05&#xA;-18.78 6.89 -24.00 1.84 -5.22 4.06 -12.34 4.94 -15.82 0.88 -3.48 2.03&#xA;-11.35 2.56 -17.50 0.53 -6.15 1.67 -16.81 2.53 -23.68 0.86 -6.88 2.86&#xA;-17.68 4.43 -24.00 1.58 -6.32 3.36 -14.43 3.97 -18.00 0.84 -4.96 0.76&#xA;-13.01 -0.36 -34.00 -1.18 -22.26 -1.86 -28.77 -3.56 -34.17 -1.16 -3.67&#xA;-3.19 -11.61 -4.53 -17.65 -1.33 -6.03 -3.53 -13.61 -4.89 -16.83 -1.35 -3.22&#xA;-2.95 -8.52 -3.56 -11.79 -0.60 -3.26 -1.11 -7.76 -1.12 -10.00 -0.01 -2.24&#xA;-1.06 -6.60 -2.34 -9.69 -1.27 -3.09 -5.25 -9.84 -8.84 -15.00 -3.59 -5.16&#xA;-7.91 -12.11 -9.59 -15.45 -1.68 -3.34 -5.53 -12.12 -8.54 -19.50 -3.01 -7.38&#xA;-7.21 -17.25 -9.32 -21.93 -3.67 -8.14 -3.84 -8.95 -3.82 -19.00 0.01 -5.78&#xA;0.56 -18.15 1.22 -27.50 0.66 -9.35 1.84 -20.82 2.63 -25.50 0.79 -4.68 2.64&#xA;-13.00 4.12 -18.50 2.43 -9.08 2.62 -11.06 2.07 -21.50 -0.34 -6.32 -1.26&#xA;-14.58 -2.06 -18.35 -0.95 -4.51 -3.57 -10.81 -7.68 -18.50 l-6.24 -11.65&#xA;-0.62 -16.00 c-0.59 -15.32 -0.77 -16.38 -4.20 -25.00 -1.97 -4.95 -4.27&#xA;-11.70 -5.11 -15.00 -0.84 -3.30 -2.01 -9.52 -2.59 -13.82 -0.58 -4.30 -1.06&#xA;-12.63 -1.05 -18.50 0.01 -5.87 0.63 -14.73 1.39 -19.68 0.79 -5.17 1.17&#xA;-12.83 0.90 -18.00 l-0.47 -9.00 4.62 -9.39 c2.54 -5.16 6.00 -14.39 7.68&#xA;-20.50 1.69 -6.11 4.70 -14.26 6.70 -18.11 2.68 -5.15 6.32 -9.66 13.80&#xA;-17.08 6.44 -6.39 11.18 -12.06 12.94 -15.50 2.51 -4.90 2.87 -6.96 3.77&#xA;-21.56 0.79 -12.85 0.73 -16.77 -0.29 -19.25 -0.71 -1.71 -1.57 -3.11 -1.92&#xA;-3.10 -0.35 0.00 -1.71 1.60 -3.04 3.54z" fill="#3d8cd8" fill-rule="evenodd" stroke="#3d8cd8" stroke-linejoin="round" stroke-width="0.80"/>
<path d="M1523.20 1857.57 c-1.62 1.97 -5.74 9.69 -9.16 17.16 -3.42 7.47 -6.88 16.76&#xA;-7.68 20.64 -1.04 4.96 -1.28 9.74 -0.82 16.09 0.36 4.97 1.26 11.73 1.99&#xA;15.03 0.74 3.30 3.34 10.50 5.77 16.00 2.44 5.50 7.39 19.00 11.01 30.00 3.62&#xA;11.00 7.05 22.93 7.63 26.50 0.58 3.57 1.05 10.23 1.05 14.78 0.00 4.56 0.96&#xA;14.44 2.12 21.97 1.78 11.53 1.94 14.79 1.04 20.72 -0.59 3.87 -1.78 12.21&#xA;-2.64 18.53 -0.86 6.32 -2.90 15.95 -4.54 21.40 -2.18 7.28 -2.96 11.91 -2.94&#xA;17.50 0.01 4.18 0.45 9.40 0.96 11.60 0.52 2.20 1.42 9.18 2.01 15.51 0.76&#xA;8.20 0.76 13.52 -0.01 18.50 -0.59 3.84 -1.52 15.54 -2.06 25.99 -0.54 10.45&#xA;-1.24 25.99 -1.57 34.53 -0.44 11.59 -0.16 18.82 1.09 28.50 0.92 7.13 2.07&#xA;23.77 2.56 36.97 0.65 17.65 1.41 26.25 2.85 32.50 1.08 4.68 3.06 11.43 4.41&#xA;15.00 1.35 3.57 4.38 10.32 6.72 15.00 2.35 4.68 7.30 13.22 11.01 19.00 3.70&#xA;5.78 8.21 13.42 10.01 17.00 1.80 3.57 4.81 12.57 6.68 20.00 1.96 7.76 4.24&#xA;20.73 5.36 30.50 1.67 14.48 1.80 18.78 0.90 29.00 -0.58 6.60 -1.99 19.39&#xA;-3.13 28.41 -1.35 10.68 -1.86 18.72 -1.45 23.00 0.34 3.62 1.78 11.31 3.19&#xA;17.09 2.30 9.41 2.62 12.99 3.00 34.56 0.40 22.50 0.59 24.53 2.94 31.23 1.38&#xA;3.94 2.50 8.19 2.50 9.44 0.00 1.25 -0.90 5.42 -2.00 9.27 -1.10 3.85 -2.00&#xA;8.91 -2.00 11.26 0.00 2.35 1.10 9.77 2.45 16.50 1.35 6.73 3.41 16.25 4.58&#xA;21.17 1.91 8.01 2.06 10.59 1.45 25.00 -0.46 10.78 -0.30 18.70 0.48 24.07&#xA;0.64 4.40 1.52 13.96 1.95 21.23 0.71 11.91 1.09 13.81 3.78 19.00 1.64 3.17&#xA;4.29 8.09 5.88 10.92 2.77 4.94 2.84 5.38 1.68 10.50 -0.67 2.94 -2.40 9.17&#xA;-3.85 13.84 -1.59 5.11 -2.83 11.89 -3.13 17.01 -0.42 7.38 -0.06 10.10 2.74&#xA;20.50 1.77 6.60 3.85 15.82 4.61 20.49 0.76 4.68 1.38 13.98 1.39 20.68 0.00&#xA;6.70 -0.48 15.65 -1.07 19.89 -0.59 4.24 -2.18 11.59 -3.54 16.32 -1.36 4.74&#xA;-5.10 14.24 -8.32 21.11 -3.22 6.88 -6.17 13.40 -6.56 14.50 -0.39 1.10 -1.07&#xA;6.50 -1.53 12.00 -0.63 7.55 -1.72 12.45 -4.48 20.00 -8.36 22.92 -8.63 23.91&#xA;-9.43 35.00 -0.61 8.50 -1.53 13.04 -4.05 20.00 -1.79 4.95 -5.73 16.15 -8.76&#xA;24.88 -5.03 14.52 -5.57 16.92 -6.27 28.00 -0.64 10.06 -1.45 14.25 -4.77&#xA;24.62 -2.20 6.88 -4.71 17.00 -5.57 22.50 -0.86 5.50 -2.94 14.72 -4.61 20.50&#xA;-1.67 5.78 -3.04 12.46 -3.04 14.86 -0.00 2.40 0.71 7.12 1.59 10.50 0.88&#xA;3.40 1.41 8.39 1.19 11.17 -0.36 4.38 -1.33 6.25 -7.49 14.50 -3.89 5.21&#xA;-8.08 11.48 -9.32 13.94 -1.29 2.57 -2.46 7.15 -2.75 10.79 -0.28 3.48 0.04&#xA;10.93 0.70 16.55 1.10 9.24 1.01 11.49 -0.90 23.21 -1.16 7.14 -2.56 18.15&#xA;-3.10 24.48 -0.54 6.32 -1.26 15.61 -1.59 20.63 -0.55 8.36 -0.39 9.58 1.92&#xA;14.50 1.39 2.96 5.46 9.00 9.04 13.43 3.59 4.43 9.45 10.79 13.03 14.14 5.00&#xA;4.68 10.39 8.11 23.33 14.88 9.26 4.84 22.14 11.42 28.63 14.61 6.49 3.20&#xA;14.29 7.69 17.33 9.99 3.05 2.30 7.55 6.80 10.01 9.99 2.46 3.20 5.35 7.80&#xA;6.43 10.23 1.07 2.43 2.24 6.50 2.59 9.05 0.43 3.15 1.27 4.97 2.61 5.69 1.37&#xA;0.74 39.04 0.85 124.61 0.37 67.45 -0.38 131.00 -0.79 141.22 -0.91 l18.59&#xA;-0.23 5.91 -4.56 c3.25 -2.51 9.34 -8.14 13.52 -12.52 8.77 -9.19 11.45&#xA;-14.69 10.64 -21.88 -0.42 -3.73 -1.35 -5.46 -4.88 -9.09 -2.40 -2.46 -5.09&#xA;-4.88 -5.98 -5.36 -1.19 -0.65 -2.69 0.03 -5.66 2.58 -2.22 1.90 -4.72 3.46&#xA;-5.55 3.46 -0.83 0.00 -2.44 -1.50 -3.57 -3.34 -1.13 -1.84 -4.52 -5.66 -7.53&#xA;-8.50 -3.00 -2.84 -6.50 -5.55 -7.77 -6.02 -1.27 -0.47 -10.78 -0.88 -21.14&#xA;-0.91 -10.36 -0.03 -19.04 -0.27 -19.30 -0.52 -0.26 -0.26 1.13 -4.32 3.08&#xA;-9.03 2.55 -6.15 3.55 -10.07 3.55 -13.90 0.00 -5.25 0.11 -5.44 6.57 -11.81&#xA;3.62 -3.56 7.62 -8.27 8.89 -10.47 1.27 -2.20 3.09 -7.56 4.03 -11.90 0.94&#xA;-4.35 2.79 -10.77 4.11 -14.27 1.32 -3.50 2.40 -7.44 2.40 -8.75 0.00 -1.31&#xA;-1.58 -4.27 -3.50 -6.57 -1.92 -2.30 -3.50 -4.77 -3.50 -5.49 -0.00 -0.72&#xA;1.68 -4.83 3.73 -9.15 3.59 -7.56 3.75 -8.37 4.45 -22.35 0.40 -7.98 1.45&#xA;-18.33 2.33 -23.01 0.88 -4.68 2.03 -16.60 2.54 -26.50 0.52 -9.90 1.21&#xA;-22.28 1.55 -27.50 0.56 -8.79 0.37 -10.22 -2.49 -19.10 -1.71 -5.28 -3.10&#xA;-11.47 -3.10 -13.74 0.00 -3.02 1.36 -6.75 5.01 -13.77 2.75 -5.30 5.27&#xA;-11.26 5.58 -13.26 0.44 -2.79 0.03 -4.43 -1.77 -7.09 -1.29 -1.90 -4.36&#xA;-4.99 -6.83 -6.87 -2.47 -1.88 -4.79 -4.14 -5.17 -5.04 -0.37 -0.90 -0.71&#xA;-3.67 -0.75 -6.15 -0.04 -2.49 0.85 -7.84 1.98 -11.90 1.13 -4.06 2.75 -10.58&#xA;3.62 -14.48 0.87 -3.90 2.09 -17.27 2.72 -29.70 l1.15 -22.60 6.58 -12.90&#xA;c4.52 -8.87 6.93 -14.93 7.72 -19.40 0.63 -3.57 2.05 -13.16 3.16 -21.29 1.15&#xA;-8.41 2.01 -20.27 2.01 -27.50 -0.01 -9.23 -0.55 -14.99 -2.00 -21.02 -1.23&#xA;-5.11 -1.99 -11.77 -1.99 -17.29 0.00 -4.94 -0.71 -12.42 -1.58 -16.64 -0.87&#xA;-4.21 -2.41 -9.26 -3.42 -11.21 -1.01 -1.95 -4.11 -6.21 -6.88 -9.46 -2.77&#xA;-3.25 -5.78 -7.46 -6.67 -9.35 -0.90 -1.89 -2.29 -7.50 -3.09 -12.47 -0.80&#xA;-4.97 -2.29 -10.66 -3.30 -12.65 -1.02 -1.99 -4.71 -6.35 -8.20 -9.70 -3.49&#xA;-3.35 -7.35 -6.62 -8.56 -7.26 -1.22 -0.65 -6.17 -2.57 -11.00 -4.28 -4.83&#xA;-1.71 -11.83 -4.63 -15.56 -6.51 -3.72 -1.87 -8.90 -4.25 -11.51 -5.28 -2.61&#xA;-1.03 -12.61 -3.32 -22.23 -5.09 -9.62 -1.77 -23.12 -3.56 -29.99 -3.98 -7.81&#xA;-0.47 -14.04 -1.39 -16.59 -2.44 -3.73 -1.53 -10.24 -1.65 -72.76 -1.33&#xA;-50.29 0.26 -69.40 0.04 -71.41 -0.80 -1.50 -0.63 -4.40 -2.99 -6.43 -5.24&#xA;-2.03 -2.25 -4.25 -5.96 -4.94 -8.25 -2.27 -7.57 -0.33 -12.72 14.25 -37.77&#xA;7.26 -12.48 19.61 -33.95 27.45 -47.70 7.84 -13.75 17.49 -30.62 21.45 -37.50&#xA;3.96 -6.88 10.97 -19.37 15.58 -27.77 4.61 -8.40 12.39 -22.12 17.28 -30.50&#xA;4.89 -8.38 9.93 -17.71 11.20 -20.73 1.27 -3.03 4.18 -8.20 6.47 -11.50 2.29&#xA;-3.30 5.45 -8.47 7.02 -11.50 1.57 -3.03 5.19 -9.55 8.04 -14.50 2.85 -4.95&#xA;10.03 -18.90 15.95 -31.00 5.92 -12.10 11.25 -22.90 11.86 -24.00 1.63 -2.97&#xA;14.18 -27.34 17.11 -33.22 2.52 -5.07 5.00 -9.48 5.50 -9.79 0.58 -0.36 0.49&#xA;-1.56 -0.22 -3.28 -0.62 -1.49 -1.22 -7.44 -1.33 -13.21 -0.16 -8.81 -0.70&#xA;-11.98 -3.33 -19.72 -2.86 -8.43 -3.13 -10.31 -3.13 -21.95 0.00 -7.00 -0.54&#xA;-17.57 -1.20 -23.49 -1.07 -9.60 -1.01 -11.35 0.56 -16.32 1.74 -5.52 1.74&#xA;-5.58 -0.30 -8.18 -1.13 -1.44 -2.06 -2.96 -2.06 -3.39 0.00 -0.42 -2.17&#xA;-4.53 -4.82 -9.12 -4.88 -8.45 -25.02 -44.36 -30.19 -53.84 -3.45 -6.32 -7.78&#xA;-13.59 -9.63 -16.13 -1.85 -2.55 -3.36 -5.25 -3.36 -6.01 0.00 -0.75 -2.51&#xA;-5.83 -5.58 -11.27 -3.07 -5.45 -7.57 -12.81 -10.00 -16.36 -2.43 -3.55 -4.42&#xA;-6.85 -4.42 -7.33 0.00 -0.48 -6.59 -12.47 -14.64 -26.63 -8.05 -14.17 -22.05&#xA;-38.81 -31.11 -54.76 -9.06 -15.95 -18.18 -31.93 -20.26 -35.50 -2.08 -3.57&#xA;-8.29 -14.63 -13.78 -24.56 -5.49 -9.93 -11.42 -20.90 -13.18 -24.37 -1.75&#xA;-3.47 -6.91 -12.45 -11.46 -19.94 -4.55 -7.50 -11.44 -19.03 -15.31 -25.63&#xA;-3.87 -6.60 -8.93 -15.80 -11.25 -20.43 -2.32 -4.64 -5.32 -10.19 -6.68&#xA;-12.33 -1.35 -2.14 -4.98 -8.47 -8.06 -14.07 -3.08 -5.59 -9.50 -17.59 -14.26&#xA;-26.67 -4.76 -9.07 -10.24 -18.97 -12.17 -22.00 -1.94 -3.03 -4.72 -7.41&#xA;-6.19 -9.75 -1.47 -2.34 -3.31 -4.25 -4.09 -4.25 -0.78 0.00 -2.74 1.61 -4.36&#xA;3.57z" fill="#5f69ea" fill-rule="evenodd" stroke="#5f69ea" stroke-linejoin="round" stroke-width="0.80"/>
<path d="M2104.13 820.16 c-0.74 1.19 -1.57 4.68 -1.83 7.75 -0.27 3.07 0.23 10.97&#xA;1.11 17.55 0.88 6.58 1.59 15.52 1.59 19.88 0.00 4.36 0.53 9.70 1.18 11.87&#xA;0.65 2.17 3.57 6.63 6.50 9.90 3.81 4.27 5.32 6.78 5.32 8.84 0.00 1.58 -0.93&#xA;5.04 -2.06 7.68 -1.67 3.90 -1.85 5.27 -0.93 7.27 0.62 1.36 3.35 5.27 6.07&#xA;8.69 2.72 3.42 5.65 7.90 6.51 9.96 0.86 2.06 1.99 7.84 2.50 12.84 0.52 5.00&#xA;2.07 13.37 3.46 18.60 1.38 5.22 3.88 12.43 5.54 16.00 2.27 4.88 5.00 8.39&#xA;10.93 14.06 5.91 5.65 8.67 9.19 10.90 14.00 1.64 3.54 4.10 10.32 5.47 15.07&#xA;1.36 4.75 3.44 13.92 4.61 20.37 1.35 7.45 1.89 13.19 1.46 15.72 -0.37 2.19&#xA;-2.65 7.73 -5.07 12.31 -2.42 4.58 -4.39 9.55 -4.39 11.03 0.00 1.77 1.40&#xA;4.23 4.08 7.13 2.24 2.43 4.77 6.08 5.62 8.11 0.91 2.18 1.88 9.00 2.36 16.69&#xA;0.53 8.54 1.56 15.40 2.99 20.00 1.53 4.92 2.20 9.68 2.23 16.00 0.04 7.42&#xA;-0.49 10.70 -3.06 18.70 -2.19 6.81 -3.61 14.25 -4.78 25.00 -1.42 13.09&#xA;-1.49 16.79 -0.45 25.58 0.79 6.68 0.97 15.26 0.52 24.50 -0.46 9.48 -0.26&#xA;18.39 0.62 26.72 0.74 7.07 1.20 20.98 1.06 32.00 -0.14 10.72 0.17 31.12&#xA;0.68 45.32 0.79 21.98 0.69 27.40 -0.69 36.50 -1.35 8.93 -1.58 19.53 -1.45&#xA;64.68 0.13 42.09 0.49 56.10 1.64 63.50 0.81 5.22 2.25 13.96 3.20 19.42 1.47&#xA;8.51 1.55 11.43 0.57 20.50 -0.63 5.82 -1.15 15.32 -1.14 21.12 0.00 5.80&#xA;0.72 15.92 1.60 22.50 1.27 9.51 1.44 15.54 0.80 29.46 -0.44 9.62 -0.70&#xA;28.07 -0.58 41.00 0.18 18.91 0.72 27.10 2.79 41.92 1.75 12.53 2.36 20.14&#xA;1.90 23.80 -0.37 2.96 -1.62 8.63 -2.77 12.58 -1.89 6.49 -2.12 10.14 -2.35&#xA;37.20 -0.19 22.39 0.14 33.13 1.29 42.33 1.30 10.33 1.35 13.87 0.36 21.80&#xA;-0.81 6.42 -0.96 14.86 -0.48 26.21 0.61 14.32 0.46 17.60 -1.01 22.67 -0.95&#xA;3.26 -2.63 7.74 -3.74 9.95 -1.11 2.22 -3.78 6.38 -5.92 9.25 -2.14 2.87&#xA;-8.35 8.59 -13.79 12.71 -5.44 4.12 -11.47 9.42 -13.40 11.78 -1.93 2.36&#xA;-6.59 10.56 -10.35 18.22 l-6.84 13.94 0.25 11.91 c0.22 10.10 -0.05 12.59&#xA;-1.75 16.43 -1.10 2.49 -4.05 7.39 -6.56 10.91 -2.51 3.51 -5.21 7.95 -6.00&#xA;9.85 -0.80 1.91 -1.45 5.24 -1.45 7.42 0.00 2.17 1.53 8.83 3.40 14.80 1.95&#xA;6.22 4.09 16.17 5.02 23.31 1.29 9.96 2.13 13.24 4.17 16.32 1.40 2.12 5.02&#xA;6.54 8.04 9.82 3.02 3.28 7.22 8.65 9.34 11.94 2.47 3.81 5.37 10.75 8.03&#xA;19.20 2.29 7.28 5.25 16.38 6.57 20.23 1.32 3.85 3.30 10.82 4.41 15.50 1.11&#xA;4.68 2.01 11.65 2.01 15.50 0.00 3.85 -0.50 8.80 -1.11 11.00 -0.61 2.20&#xA;-1.98 5.22 -3.04 6.72 -1.69 2.38 -1.79 3.25 -0.80 6.93 0.62 2.32 2.21 5.62&#xA;3.52 7.34 1.31 1.72 4.41 7.38 6.89 12.57 2.48 5.19 6.50 12.37 8.94 15.94&#xA;2.44 3.57 7.56 12.35 11.38 19.50 3.82 7.15 9.54 17.28 12.71 22.50 3.17 5.22&#xA;8.80 14.02 12.51 19.54 3.71 5.52 10.61 16.63 15.33 24.69 4.72 8.06 15.53&#xA;28.07 24.02 44.46 8.49 16.40 19.61 37.24 24.71 46.31 5.10 9.07 19.52 34.95&#xA;32.05 57.50 12.53 22.55 24.48 43.70 26.57 47.00 2.09 3.30 5.97 10.28 8.63&#xA;15.50 2.66 5.22 6.25 11.86 7.98 14.75 1.73 2.89 3.49 5.25 3.93 5.25 0.43&#xA;0.00 0.79 0.80 0.79 1.78 0.00 0.98 4.49 9.56 9.98 19.08 5.49 9.52 12.76&#xA;22.55 16.15 28.97 3.40 6.42 9.76 18.20 14.13 26.17 4.37 7.97 9.11 15.74&#xA;10.53 17.25 1.42 1.51 3.07 2.75 3.66 2.75 0.59 0.00 2.69 0.86 4.66 1.92&#xA;3.50 1.87 3.65 1.88 6.36 0.10 1.53 -1.00 5.19 -2.12 8.13 -2.49 4.09 -0.51&#xA;5.84 -1.28 7.38 -3.23 1.30 -1.65 2.02 -4.07 2.02 -6.78 0.00 -2.55 0.97&#xA;-6.03 2.45 -8.82 1.35 -2.53 3.17 -5.71 4.05 -7.05 1.53 -2.34 1.47 -2.60&#xA;-1.54 -6.03 -2.66 -3.03 -3.45 -3.42 -5.14 -2.52 -1.55 0.83 -2.42 0.68 -3.93&#xA;-0.69 -1.07 -0.97 -5.18 -6.51 -9.13 -12.32 -4.60 -6.76 -9.49 -15.80 -13.56&#xA;-25.07 -3.50 -7.98 -7.23 -17.84 -8.28 -21.92 -1.31 -5.06 -1.92 -10.79 -1.92&#xA;-18.06 0.00 -9.26 -0.40 -11.82 -3.05 -19.59 -2.00 -5.86 -2.89 -10.14 -2.59&#xA;-12.44 0.25 -1.93 0.98 -5.59 1.61 -8.14 0.99 -3.98 0.92 -5.12 -0.43 -8.00&#xA;-0.87 -1.85 -2.69 -5.16 -4.06 -7.36 -1.36 -2.20 -2.96 -5.73 -3.54 -7.84&#xA;-0.75 -2.70 -0.75 -5.84 -0.02 -10.56 0.57 -3.69 1.50 -11.86 2.05 -18.16&#xA;0.56 -6.29 1.72 -14.79 2.57 -18.89 1.31 -6.24 1.37 -8.25 0.36 -12.46 -0.66&#xA;-2.76 -2.57 -7.94 -4.25 -11.52 -2.20 -4.70 -3.06 -8.05 -3.10 -12.04 -0.03&#xA;-3.04 1.05 -10.13 2.39 -15.76 l2.45 -10.22 -2.36 -14.60 c-2.29 -14.17 -2.32&#xA;-14.86 -0.75 -23.28 0.89 -4.77 2.55 -12.95 3.68 -18.18 1.69 -7.77 1.96&#xA;-11.51 1.47 -20.50 -0.45 -8.24 -0.06 -15.14 1.52 -27.50 1.16 -9.07 2.55&#xA;-23.47 3.08 -32.00 0.53 -8.53 1.35 -21.12 1.83 -28.00 0.48 -6.88 1.70&#xA;-17.31 2.71 -23.19 1.63 -9.45 1.70 -11.76 0.58 -20.00 -0.69 -5.12 -1.70&#xA;-16.51 -2.25 -25.31 -0.70 -11.33 -0.67 -17.87 0.10 -22.40 0.60 -3.52 2.43&#xA;-10.41 4.05 -15.30 1.63 -4.89 3.48 -11.93 4.11 -15.64 0.99 -5.79 0.85 -8.85&#xA;-1.01 -21.70 -1.19 -8.23 -2.17 -18.33 -2.16 -22.46 0.00 -4.17 1.19 -13.27&#xA;2.66 -20.50 2.18 -10.68 2.70 -16.13 2.89 -30.50 0.18 -13.46 0.72 -19.68&#xA;2.34 -26.95 1.16 -5.20 3.40 -12.22 4.98 -15.60 2.22 -4.75 4.21 -7.18 8.75&#xA;-10.67 3.23 -2.49 7.96 -6.76 10.52 -9.50 2.55 -2.73 5.37 -6.37 6.25 -8.08&#xA;0.88 -1.71 1.61 -4.29 1.61 -5.74 0.00 -1.45 -0.92 -6.25 -2.05 -10.68 -1.79&#xA;-7.02 -1.98 -9.91 -1.45 -22.67 0.33 -8.04 1.02 -18.22 1.52 -22.62 0.55&#xA;-4.81 0.57 -21.56 0.05 -42.00 -0.80 -31.34 -1.07 -34.78 -3.38 -44.00 -1.38&#xA;-5.50 -3.06 -13.79 -3.74 -18.43 -0.84 -5.80 -0.98 -11.73 -0.43 -19.00 0.44&#xA;-5.81 0.99 -17.55 1.23 -26.07 0.24 -8.53 0.49 -18.43 0.55 -22.00 0.06 -3.57&#xA;-0.39 -13.70 -1.00 -22.50 -0.69 -10.04 -2.04 -19.91 -3.61 -26.50 -1.38&#xA;-5.78 -2.80 -12.97 -3.17 -16.00 -0.46 -3.74 -0.00 -9.51 1.40 -18.00 1.14&#xA;-6.88 2.08 -14.14 2.08 -16.14 0.00 -2.00 -1.16 -12.12 -2.58 -22.48 -2.31&#xA;-16.88 -2.47 -19.82 -1.47 -28.27 0.61 -5.19 2.70 -15.73 4.64 -23.43 1.94&#xA;-7.72 3.97 -18.97 4.51 -25.08 0.54 -6.10 0.71 -13.34 0.36 -16.09 -0.35&#xA;-2.75 -1.47 -8.39 -2.51 -12.53 -1.03 -4.14 -2.17 -10.03 -2.53 -13.08 -0.36&#xA;-3.07 -0.12 -8.72 0.54 -12.62 0.66 -3.89 2.54 -9.92 4.19 -13.42 1.90 -4.02&#xA;4.87 -8.08 8.10 -11.07 4.85 -4.49 5.16 -4.61 3.57 -6.37 -0.92 -1.02 -1.82&#xA;-2.66 -1.82 -3.39 0.00 -0.73 -2.32 -5.65 -5.16 -10.92 -2.84 -5.27 -10.42&#xA;-19.04 -16.85 -30.59 -6.43 -11.55 -16.08 -28.88 -21.45 -38.50 -5.36 -9.62&#xA;-13.91 -24.70 -19.00 -33.50 -5.09 -8.80 -16.90 -29.28 -26.25 -45.50 -9.35&#xA;-16.22 -21.18 -37.15 -26.28 -46.50 -5.11 -9.35 -13.10 -23.97 -17.77 -32.50&#xA;-4.67 -8.53 -13.67 -24.72 -20.01 -36.00 -6.34 -11.28 -17.68 -31.30 -25.21&#xA;-44.50 -7.53 -13.20 -17.89 -31.65 -23.03 -41.00 -5.14 -9.35 -13.62 -24.43&#xA;-18.84 -33.50 -5.23 -9.07 -17.90 -31.12 -28.17 -49.00 -10.26 -17.88 -26.88&#xA;-47.35 -36.93 -65.50 -10.04 -18.15 -18.96 -33.79 -19.81 -34.75 -0.85 -0.96&#xA;-2.85 -1.75 -4.45 -1.75 -2.35 0.00 -4.72 -1.86 -12.46 -9.75 -5.26 -5.36&#xA;-11.42 -10.99 -13.70 -12.50 -2.27 -1.51 -5.04 -2.75 -6.15 -2.75 -1.11 -0.00&#xA;-2.62 0.97 -3.36 2.16z" fill="#f17162" fill-rule="evenodd" stroke="#f17162" stroke-linejoin="round" stroke-width="0.80"/>
<path d="M2443.06 1394.52 c-7.45 7.10 -12.36 16.38 -14.08 26.58 -0.68 4.04 -0.93&#xA;9.68 -0.57 12.79 0.36 3.05 1.50 8.94 2.53 13.08 1.03 4.14 2.16 9.78 2.51&#xA;12.53 0.35 2.75 0.18 9.99 -0.36 16.09 -0.55 6.11 -2.57 17.37 -4.51 25.08&#xA;-1.94 7.70 -4.02 18.24 -4.64 23.43 -1.00 8.45 -0.84 11.39 1.47 28.27 1.42&#xA;10.36 2.58 20.48 2.58 22.48 -0.00 2.00 -0.94 9.27 -2.08 16.14 -1.41 8.49&#xA;-1.86 14.26 -1.40 18.00 0.37 3.03 1.80 10.22 3.17 16.00 1.57 6.59 2.92&#xA;16.46 3.61 26.50 0.61 8.80 1.06 18.93 1.00 22.50 -0.20 11.98 -1.30 41.57&#xA;-1.79 48.07 -0.54 7.27 -0.41 13.20 0.43 19.00 0.67 4.64 2.36 12.93 3.74&#xA;18.43 2.32 9.22 2.58 12.66 3.38 44.00 0.52 20.44 0.50 37.19 -0.05 42.00&#xA;-0.51 4.40 -1.19 14.58 -1.52 22.62 -0.53 12.76 -0.34 15.65 1.45 22.67 1.13&#xA;4.42 2.05 9.34 2.05 10.93 0.00 1.59 -1.30 4.93 -2.88 7.44 -1.59 2.50 -5.52&#xA;6.60 -8.75 9.10 -3.23 2.50 -7.53 6.28 -9.56 8.40 -2.03 2.12 -4.85 6.38&#xA;-6.27 9.48 -1.41 3.10 -3.51 9.85 -4.66 15.00 -1.60 7.18 -2.14 13.45 -2.32&#xA;26.87 -0.19 14.37 -0.71 19.82 -2.89 30.50 -1.48 7.23 -2.66 16.33 -2.66&#xA;20.50 -0.00 4.12 0.97 14.23 2.16 22.46 1.86 12.85 2.01 15.91 1.01 21.70&#xA;-0.64 3.71 -2.49 10.74 -4.11 15.64 -1.63 4.89 -3.45 11.78 -4.05 15.30 -0.78&#xA;4.54 -0.81 11.07 -0.10 22.40 0.55 8.80 1.56 20.19 2.25 25.31 1.11 8.24 1.04&#xA;10.55 -0.58 20.00 -1.01 5.88 -2.23 16.31 -2.71 23.19 -0.48 6.88 -1.30 19.47&#xA;-1.83 28.00 -0.53 8.53 -1.91 22.93 -3.08 32.00 -1.59 12.36 -1.97 19.26&#xA;-1.52 27.50 0.49 8.99 0.22 12.73 -1.47 20.50 -1.14 5.22 -2.80 13.40 -3.68&#xA;18.18 -1.57 8.42 -1.55 9.11 0.75 23.28 l2.36 14.60 -2.45 10.22 c-1.34 5.62&#xA;-2.42 12.71 -2.39 15.76 0.04 3.99 0.90 7.35 3.10 12.04 1.68 3.58 3.59 8.77&#xA;4.25 11.52 1.01 4.20 0.95 6.22 -0.36 12.46 -0.86 4.09 -2.02 12.59 -2.57&#xA;18.89 -0.56 6.29 -1.48 14.47 -2.05 18.16 -0.73 4.71 -0.72 7.86 0.02 10.56&#xA;0.59 2.11 2.18 5.64 3.54 7.84 1.36 2.20 3.19 5.51 4.06 7.36 1.35 2.88 1.41&#xA;4.02 0.43 8.00 -0.63 2.55 -1.36 6.22 -1.61 8.14 -0.30 2.30 0.59 6.57 2.59&#xA;12.44 2.65 7.77 3.05 10.33 3.05 19.59 0.00 7.27 0.61 13.01 1.92 18.06 1.06&#xA;4.08 4.78 13.94 8.28 21.92 4.15 9.45 8.87 18.16 13.56 25.00 3.96 5.77 9.17&#xA;12.73 11.58 15.46 4.19 4.75 4.50 4.92 7.13 3.72 2.46 -1.12 2.69 -1.10 2.19&#xA;0.21 -0.31 0.80 0.02 1.94 0.72 2.53 0.93 0.77 2.44 0.58 5.43 -0.68 3.20&#xA;-1.34 4.41 -2.54 5.30 -5.24 0.63 -1.93 2.24 -4.80 3.56 -6.39 1.33 -1.59&#xA;3.57 -5.19 4.98 -8.00 1.42 -2.81 3.35 -6.23 4.30 -7.61 0.95 -1.38 4.19&#xA;-7.22 7.20 -13.00 3.01 -5.78 9.15 -16.94 13.65 -24.81 4.49 -7.87 8.17&#xA;-14.53 8.17 -14.80 0.00 -0.27 1.65 -3.05 3.66 -6.19 2.01 -3.14 7.78 -12.45&#xA;12.82 -20.70 5.04 -8.25 11.96 -20.18 15.37 -26.50 3.42 -6.32 6.61 -12.18&#xA;7.10 -13.00 6.66 -11.24 28.72 -49.26 33.36 -57.50 5.27 -9.35 13.77 -23.59&#xA;18.88 -31.64 5.11 -8.05 11.94 -19.52 15.16 -25.50 10.57 -19.60 28.58 -51.97&#xA;30.88 -55.50 2.02 -3.10 5.19 -8.72 7.04 -12.50 1.85 -3.78 6.12 -11.68 9.47&#xA;-17.57 3.36 -5.89 7.95 -13.43 10.21 -16.75 2.26 -3.33 10.07 -16.29 17.36&#xA;-28.80 7.29 -12.51 17.69 -30.62 23.11 -40.25 5.42 -9.62 13.33 -23.35 17.57&#xA;-30.50 4.24 -7.15 9.45 -16.38 11.57 -20.50 2.12 -4.12 5.53 -9.73 7.59&#xA;-12.45 2.06 -2.72 6.32 -9.92 9.47 -16.00 3.15 -6.08 9.41 -17.38 13.89&#xA;-25.12 4.49 -7.74 8.49 -15.39 8.89 -17.00 0.40 -1.61 2.46 -5.68 4.58 -9.04&#xA;2.12 -3.36 4.51 -7.68 5.31 -9.60 0.80 -1.92 1.78 -5.42 2.18 -7.78 0.57&#xA;-3.35 2.04 -5.70 6.70 -10.72 3.29 -3.53 6.89 -8.49 8.01 -11.02 1.62 -3.67&#xA;1.94 -6.03 1.58 -11.69 -0.37 -5.77 -1.26 -8.73 -4.77 -15.91 -2.37 -4.85&#xA;-7.76 -14.07 -11.97 -20.49 -4.21 -6.42 -12.32 -19.54 -18.01 -29.17 -5.69&#xA;-9.62 -12.25 -20.65 -14.57 -24.50 -2.33 -3.85 -9.18 -15.55 -15.23 -26.00&#xA;-6.05 -10.45 -15.93 -28.00 -21.95 -39.00 -6.02 -11.00 -13.79 -25.40 -17.26&#xA;-32.00 -3.47 -6.60 -9.68 -17.85 -13.81 -25.00 -4.12 -7.15 -9.41 -16.15&#xA;-11.76 -20.00 -2.91 -4.79 -21.61 -38.22 -30.47 -54.50 -3.45 -6.32 -10.32&#xA;-18.93 -15.27 -28.00 -4.95 -9.07 -11.41 -20.66 -14.34 -25.74 -2.93 -5.08&#xA;-7.98 -13.63 -11.21 -19.00 -3.23 -5.37 -8.80 -15.16 -12.39 -21.76 -3.58&#xA;-6.60 -11.49 -21.22 -17.57 -32.50 -6.08 -11.28 -14.09 -25.68 -17.80 -32.00&#xA;-3.71 -6.32 -9.51 -16.68 -12.90 -23.00 -3.39 -6.32 -10.45 -18.93 -15.68&#xA;-28.00 -5.24 -9.07 -12.60 -22.35 -16.36 -29.50 -3.76 -7.15 -11.41 -21.10&#xA;-17.00 -31.00 -5.58 -9.90 -15.01 -26.32 -20.94 -36.50 -5.93 -10.18 -11.73&#xA;-19.56 -12.72 -20.60 -1.76 -1.85 -1.81 -1.55 -7.75 4.12z" fill="#f88231" fill-rule="evenodd" stroke="#f88231" stroke-linejoin="round" stroke-width="0.80"/>
<path d="M1777.28 2300.37 c-1.10 1.39 -2.59 4.66 -3.32 7.26 -1.08 3.84 -1.10 6.72&#xA;-0.14 15.34 0.65 5.84 1.18 16.35 1.18 23.35 0.00 11.71 0.26 13.47 3.18&#xA;21.95 2.69 7.80 3.16 10.53 3.04 17.72 -0.08 4.87 0.48 10.69 1.31 13.62 0.80&#xA;2.82 2.07 5.63 2.83 6.26 1.14 0.95 1.59 0.89 2.60 -0.33 0.67 -0.81 4.16&#xA;-6.55 7.75 -12.76 3.59 -6.21 8.61 -15.12 11.15 -19.79 4.26 -7.82 4.63 -9.07&#xA;4.64 -15.55 0.01 -6.83 -0.18 -7.37 -6.10 -17.50 -3.36 -5.75 -10.03 -16.98&#xA;-14.83 -24.95 -4.80 -7.97 -9.30 -15.10 -10.01 -15.83 -1.06 -1.10 -1.63&#xA;-0.89 -3.28 1.20z M1854.37 2755.75 c-79.68 0.21 -96.33 0.49 -97.26 1.62&#xA;-0.88 1.06 -0.85 1.59 0.13 2.41 0.70 0.58 3.74 2.05 6.76 3.26 4.06 1.63&#xA;8.77 2.41 18.00 2.97 6.88 0.42 20.37 2.21 29.99 3.98 9.62 1.77 19.62 4.06&#xA;22.23 5.09 2.61 1.03 7.79 3.40 11.51 5.28 3.72 1.87 10.82 4.83 15.77 6.58&#xA;4.95 1.74 10.12 3.88 11.50 4.74 1.38 0.87 3.78 2.75 5.34 4.19 1.56 1.44&#xA;3.68 4.25 4.70 6.23 1.02 1.99 2.51 7.68 3.31 12.65 0.80 4.97 2.19 10.58&#xA;3.09 12.47 0.90 1.89 3.90 6.10 6.67 9.35 2.77 3.25 5.87 7.51 6.88 9.46 1.01&#xA;1.95 2.55 7.00 3.42 11.21 0.87 4.21 1.58 11.70 1.58 16.64 0.00 5.52 0.77&#xA;12.18 1.99 17.29 1.45 6.04 1.99 11.80 2.00 21.02 0.00 7.23 -0.86 19.09&#xA;-2.01 27.50 -1.11 8.13 -2.53 17.72 -3.16 21.29 -0.79 4.47 -3.20 10.53 -7.72&#xA;19.40 l-6.58 12.90 -1.15 22.60 c-0.63 12.43 -1.85 25.80 -2.72 29.70 -0.87&#xA;3.90 -2.49 10.42 -3.62 14.48 -1.13 4.06 -2.05 9.28 -2.05 11.59 0.00 2.31&#xA;0.48 5.47 1.07 7.02 0.59 1.55 2.04 3.86 3.24 5.13 1.19 1.27 3.60 2.99 5.34&#xA;3.82 1.75 0.83 3.71 2.79 4.36 4.37 0.75 1.81 0.93 4.02 0.50 6.01 -0.38 1.73&#xA;-2.90 7.39 -5.59 12.58 -3.56 6.85 -4.90 10.56 -4.90 13.57 0.00 2.28 1.40&#xA;8.46 3.10 13.74 2.87 8.89 3.06 10.31 2.49 19.10 -0.33 5.22 -1.03 17.60&#xA;-1.55 27.50 -0.52 9.90 -1.66 21.82 -2.54 26.50 -0.88 4.68 -1.93 15.03 -2.33&#xA;23.01 -0.70 13.98 -0.86 14.79 -4.45 22.35 -2.05 4.32 -3.73 8.43 -3.73 9.15&#xA;0.00 0.72 1.58 3.19 3.50 5.49 1.92 2.30 3.50 5.26 3.50 6.57 0.00 1.31 -1.08&#xA;5.25 -2.40 8.75 -1.32 3.50 -3.17 9.93 -4.11 14.27 -0.94 4.35 -2.75 9.70&#xA;-4.02 11.90 -1.27 2.20 -5.27 6.87 -8.89 10.38 -6.51 6.32 -6.58 6.44 -6.58&#xA;11.81 0.00 3.94 -0.98 7.78 -3.57 14.06 -2.93 7.08 -3.38 9.05 -2.51 10.96&#xA;0.58 1.28 2.29 2.80 3.78 3.36 1.50 0.57 11.52 1.12 22.26 1.23 18.53 0.18&#xA;19.70 0.31 22.71 2.46 1.74 1.24 5.24 5.17 7.78 8.71 2.53 3.55 5.37 6.88&#xA;6.30 7.40 1.07 0.60 2.35 0.60 3.45 0.01 0.96 -0.52 2.87 -2.05 4.23 -3.42&#xA;1.36 -1.36 3.33 -2.48 4.37 -2.48 1.04 0.00 2.70 0.90 3.69 1.99 1.00 1.11&#xA;2.01 4.15 2.27 6.85 0.34 3.49 -0.10 6.13 -1.53 9.38 -1.10 2.49 -3.73 6.44&#xA;-5.85 8.78 -2.12 2.34 -8.08 7.66 -13.25 11.82 -7.85 6.32 -9.09 7.68 -7.51&#xA;8.30 1.04 0.41 21.49 0.77 45.45 0.81 l43.56 0.07 2.55 -2.75 c1.40 -1.51&#xA;7.85 -12.88 14.33 -25.25 6.48 -12.38 12.77 -24.07 13.98 -26.00 1.21 -1.93&#xA;12.10 -20.82 24.20 -42.00 12.10 -21.18 29.11 -51.55 37.80 -67.50 8.69&#xA;-15.95 18.16 -33.05 21.03 -38.00 8.54 -14.71 23.69 -41.00 29.41 -51.07 4.71&#xA;-8.29 15.09 -27.54 23.07 -42.78 7.97 -15.24 23.54 -44.45 34.59 -64.93 11.05&#xA;-20.47 26.10 -48.47 33.45 -62.22 7.34 -13.75 22.44 -40.75 33.55 -60.00&#xA;11.11 -19.25 23.91 -41.30 28.45 -49.00 4.54 -7.70 12.18 -20.97 16.97 -29.50&#xA;4.79 -8.53 15.36 -28.10 23.49 -43.50 8.12 -15.40 16.79 -31.60 19.26 -36.00&#xA;2.47 -4.40 7.14 -11.72 10.37 -16.27 3.23 -4.55 5.88 -9.12 5.88 -10.14 0.00&#xA;-1.03 -0.74 -2.15 -1.64 -2.50 -1.22 -0.47 -309.12 -0.36 -510.99 0.17z" fill="#745de6" fill-rule="evenodd" stroke="#745de6" stroke-linejoin="round" stroke-width="0.80"/>
<path d="M3028.34 2428.23 c-1.12 1.25 -5.09 8.12 -8.82 15.27 -3.73 7.15 -10.54 20.01&#xA;-15.15 28.57 -4.60 8.56 -8.37 16.13 -8.37 16.82 0.00 0.69 -0.70 1.95 -1.56&#xA;2.81 -1.48 1.48 -1.46 1.66 0.43 3.68 1.09 1.17 2.47 3.39 3.06 4.94 0.59&#xA;1.55 1.07 4.90 1.07 7.45 0.00 2.55 -0.54 9.50 -1.20 15.44 -1.14 10.24 -1.05&#xA;11.69 1.63 27.89 2.25 13.59 2.73 19.06 2.32 26.75 -0.43 8.16 -1.26 11.83&#xA;-5.34 23.66 -4.80 13.90 -4.83 14.09 -4.86 27.00 -0.02 9.33 0.63 16.66 2.29&#xA;25.95 2.17 12.12 2.24 13.69 1.08 24.50 -1.17 10.90 -1.09 12.66 1.48 31.16&#xA;1.93 13.87 2.53 21.35 2.05 25.56 -0.39 3.42 -0.19 9.11 0.47 13.39 0.63 4.09&#xA;2.31 12.84 3.73 19.44 1.43 6.60 3.96 17.40 5.63 24.00 3.00 11.87 3.04 12.36&#xA;3.48 44.00 0.40 29.02 0.23 33.74 -1.86 50.62 l-2.31 18.62 2.31 18.00 2.31&#xA;18.00 -2.22 16.78 c-1.84 13.91 -2.12 19.61 -1.66 33.38 0.31 9.13 1.01 22.68&#xA;1.56 30.10 0.55 7.43 1.69 18.65 2.55 24.94 0.85 6.29 1.55 15.33 1.55 20.09&#xA;0.00 5.23 0.75 11.59 1.90 16.09 1.05 4.09 4.37 13.50 7.38 20.91 3.01 7.41&#xA;6.02 15.82 6.69 18.70 1.03 4.43 0.96 6.74 -0.47 15.25 -1.55 9.26 -1.56&#xA;10.92 -0.12 21.77 1.41 10.63 1.41 12.51 0.01 19.75 -0.85 4.40 -1.79 11.63&#xA;-2.09 16.06 -0.36 5.36 0.15 13.24 1.53 23.50 1.14 8.49 2.35 19.94 2.69&#xA;25.44 0.43 6.83 0.12 13.80 -0.97 22.00 -1.16 8.69 -1.43 15.72 -0.98 25.50&#xA;0.37 8.10 0.20 15.90 -0.42 19.50 -0.57 3.30 -1.94 11.18 -3.03 17.50 -1.40&#xA;8.08 -2.09 17.31 -2.31 31.00 -0.30 18.45 -0.20 19.72 1.86 23.57 1.20 2.24&#xA;4.88 7.06 8.19 10.70 3.31 3.65 6.52 7.59 7.15 8.76 0.94 1.76 0.74 2.70&#xA;-1.19 5.43 -1.28 1.81 -4.26 5.66 -6.62 8.55 -2.36 2.89 -4.12 5.76 -3.92&#xA;6.37 0.27 0.81 28.18 1.11 101.65 1.11 l101.28 0.00 1.72 -5.50 c0.95 -3.03&#xA;2.73 -7.46 3.97 -9.87 1.45 -2.83 2.03 -5.23 1.63 -6.82 -0.34 -1.35 -3.08&#xA;-5.69 -6.09 -9.63 -3.01 -3.95 -5.94 -8.75 -6.50 -10.68 -0.56 -1.93 -1.92&#xA;-9.52 -3.03 -16.87 -1.80 -12.01 -1.95 -16.70 -1.46 -46.00 0.30 -17.95 0.98&#xA;-40.95 1.52 -51.13 0.53 -10.18 1.42 -21.43 1.98 -25.00 0.55 -3.57 1.01&#xA;-9.65 1.02 -13.50 0.01 -3.85 1.23 -15.90 2.72 -26.77 2.60 -18.95 2.66&#xA;-20.44 1.55 -36.11 -0.83 -11.72 -0.86 -19.97 -0.13 -29.19 0.76 -9.54 0.72&#xA;-15.05 -0.17 -21.39 -0.66 -4.70 -3.13 -16.43 -5.51 -26.07 -2.37 -9.64 -5.07&#xA;-22.69 -6.00 -29.00 -1.12 -7.61 -1.46 -13.90 -1.03 -18.68 0.36 -3.96 2.26&#xA;-16.79 4.22 -28.50 3.50 -20.85 3.59 -22.10 4.36 -59.95 0.97 -47.43 0.99&#xA;-47.51 10.80 -56.35 3.66 -3.30 9.37 -8.75 12.68 -12.11 3.31 -3.36 10.39&#xA;-10.63 15.75 -16.14 8.27 -8.52 9.51 -10.21 8.25 -11.26 -0.82 -0.68 -1.48&#xA;-1.85 -1.48 -2.60 0.00 -0.75 -4.36 -9.13 -9.69 -18.63 -5.33 -9.49 -12.36&#xA;-21.98 -15.62 -27.76 -6.59 -11.66 -37.81 -67.99 -45.73 -82.50 -5.70 -10.45&#xA;-14.18 -25.53 -18.84 -33.50 -4.66 -7.97 -15.10 -26.20 -23.20 -40.50 -8.10&#xA;-14.30 -20.55 -35.90 -27.66 -48.00 -7.12 -12.10 -16.45 -28.30 -20.74 -36.00&#xA;-8.18 -14.67 -22.41 -39.99 -36.24 -64.50 -8.23 -14.57 -16.89 -30.10 -19.27&#xA;-34.50 -2.37 -4.40 -8.11 -14.75 -12.75 -23.00 -4.64 -8.25 -9.04 -16.11&#xA;-9.78 -17.47 -0.74 -1.36 -1.74 -2.61 -2.22 -2.77 -0.49 -0.16 -1.81 0.73&#xA;-2.93 1.97z" fill="#9ebe20" fill-rule="evenodd" stroke="#9ebe20" stroke-linejoin="round" stroke-width="0.80"/>
<path d="M2988.06 2501.75 c-3.44 5.91 -11.20 19.51 -17.26 30.21 -6.06 10.70 -15.60&#xA;26.68 -21.21 35.50 -5.60 8.82 -14.81 24.73 -20.46 35.35 -5.65 10.62 -14.67&#xA;26.82 -20.04 36.00 -5.37 9.18 -11.83 20.06 -14.34 24.19 -2.52 4.12 -7.73&#xA;12.90 -11.59 19.50 -3.86 6.60 -11.63 20.55 -17.26 31.00 -5.63 10.45 -12.93&#xA;23.72 -16.22 29.50 -3.29 5.78 -8.77 15.45 -12.19 21.50 -3.42 6.05 -8.59&#xA;15.05 -11.50 20.00 -2.90 4.95 -6.37 11.35 -7.70 14.23 -1.33 2.88 -2.86 5.50&#xA;-3.40 5.84 -0.68 0.42 -0.62 1.04 0.18 2.01 0.64 0.77 3.64 2.82 6.67 4.55&#xA;4.33 2.48 5.95 4.13 7.60 7.76 3.06 6.72 2.71 15.09 -1.21 28.79 -1.76 6.15&#xA;-3.46 13.35 -3.77 16.00 -0.31 2.65 0.16 9.77 1.05 15.82 0.89 6.05 1.41&#xA;13.93 1.15 17.50 -0.26 3.57 -1.36 9.43 -2.45 13.00 -1.09 3.57 -3.15 10.28&#xA;-4.56 14.91 -1.52 4.96 -3.19 14.19 -4.06 22.50 -0.85 8.08 -1.49 23.70 -1.49&#xA;36.59 -0.00 20.86 -0.23 23.70 -3.07 39.00 -1.79 9.59 -3.13 20.27 -3.20&#xA;25.50 -0.07 4.95 0.44 20.70 1.13 35.00 0.70 14.30 0.99 30.05 0.65 35.00&#xA;-0.34 4.95 -1.34 13.72 -2.23 19.50 -1.06 6.92 -1.67 18.16 -1.79 33.00 -0.10&#xA;12.38 -0.68 26.78 -1.30 32.00 -0.62 5.22 -1.14 17.16 -1.15 26.53 -0.01 9.36&#xA;-0.50 20.84 -1.08 25.50 -0.58 4.66 -2.20 13.42 -3.61 19.47 -2.30 9.90 -2.50&#xA;12.34 -1.98 24.50 0.49 11.66 0.21 15.70 -2.09 29.66 -2.56 15.56 -2.61 16.66&#xA;-1.41 29.50 0.91 9.78 0.97 14.78 0.19 18.73 -0.58 2.96 -1.05 7.25 -1.05&#xA;9.53 0.00 3.74 0.59 4.73 6.00 10.08 3.30 3.27 6.00 6.28 6.00 6.70 0.00 0.42&#xA;-2.26 1.91 -5.02 3.31 -2.76 1.40 -8.01 5.38 -11.67 8.85 -4.70 4.45 -6.47&#xA;6.78 -6.03 7.94 0.58 1.51 10.77 1.62 126.84 1.42 101.35 -0.17 126.29 -0.47&#xA;126.64 -1.49 0.23 -0.70 2.30 -3.57 4.58 -6.37 2.29 -2.80 5.21 -6.58 6.49&#xA;-8.39 1.93 -2.73 2.13 -3.67 1.19 -5.43 -0.63 -1.17 -3.84 -5.11 -7.15 -8.76&#xA;-3.31 -3.65 -6.99 -8.47 -8.19 -10.70 -2.06 -3.85 -2.16 -5.12 -1.86 -23.57&#xA;0.22 -13.69 0.91 -22.92 2.31 -31.00 1.10 -6.32 2.46 -14.20 3.03 -17.50 0.62&#xA;-3.60 0.79 -11.40 0.42 -19.50 -0.45 -9.78 -0.18 -16.81 0.98 -25.50 1.09&#xA;-8.20 1.40 -15.17 0.97 -22.00 -0.35 -5.50 -1.56 -16.95 -2.69 -25.44 -1.37&#xA;-10.26 -1.88 -18.14 -1.53 -23.50 0.30 -4.43 1.24 -11.66 2.09 -16.06 1.40&#xA;-7.24 1.40 -9.12 -0.01 -19.75 -1.44 -10.85 -1.43 -12.52 0.12 -21.77 1.43&#xA;-8.51 1.50 -10.82 0.47 -15.25 -0.67 -2.87 -3.68 -11.29 -6.69 -18.70 -3.01&#xA;-7.41 -6.33 -16.82 -7.38 -20.91 -1.15 -4.50 -1.90 -10.86 -1.90 -16.09 0.00&#xA;-4.76 -0.70 -13.80 -1.55 -20.09 -0.85 -6.29 -2.00 -17.51 -2.55 -24.94 -0.55&#xA;-7.43 -1.25 -20.97 -1.56 -30.10 -0.47 -13.77 -0.19 -19.46 1.66 -33.38 l2.22&#xA;-16.78 -2.31 -18.00 -2.31 -18.00 2.31 -18.62 c2.09 -16.89 2.26 -21.60 1.86&#xA;-50.62 -0.44 -31.64 -0.48 -32.13 -3.48 -44.00 -1.67 -6.60 -4.21 -17.40&#xA;-5.63 -24.00 -1.43 -6.60 -3.11 -15.35 -3.73 -19.44 -0.65 -4.28 -0.85 -9.97&#xA;-0.47 -13.39 0.48 -4.21 -0.12 -11.69 -2.05 -25.56 -2.57 -18.50 -2.65 -20.26&#xA;-1.48 -31.16 1.16 -10.81 1.09 -12.38 -1.08 -24.50 -1.67 -9.29 -2.32 -16.62&#xA;-2.29 -25.95 0.03 -12.91 0.06 -13.10 4.86 -27.00 4.08 -11.83 4.91 -15.50&#xA;5.34 -23.66 0.40 -7.68 -0.07 -13.16 -2.32 -26.75 -2.68 -16.20 -2.77 -17.65&#xA;-1.63 -27.89 0.66 -5.94 1.20 -12.89 1.20 -15.44 0.00 -2.55 -0.48 -5.91&#xA;-1.06 -7.45 -0.58 -1.55 -2.47 -4.28 -4.20 -6.07 -1.72 -1.79 -3.65 -3.25&#xA;-4.29 -3.25 -0.63 0.00 -3.96 4.84 -7.40 10.75z" fill="#76b52f" fill-rule="evenodd" stroke="#76b52f" stroke-linejoin="round" stroke-width="0.80"/>
<path d="M3268.57 2860.28 c-2.16 1.77 -7.85 7.63 -12.64 13.03 -4.79 5.40 -12.70&#xA;13.23 -17.57 17.40 -4.87 4.17 -9.89 8.98 -11.15 10.69 -1.26 1.71 -2.99 5.51&#xA;-3.85 8.45 -1.22 4.18 -1.73 13.82 -2.35 44.00 -0.78 37.85 -0.87 39.09 -4.36&#xA;59.95 -1.96 11.71 -3.86 24.54 -4.22 28.50 -0.43 4.78 -0.09 11.07 1.03 18.68&#xA;0.93 6.31 3.62 19.36 6.00 29.00 2.37 9.64 4.85 21.37 5.51 26.07 0.89 6.34&#xA;0.93 11.86 0.17 21.39 -0.74 9.22 -0.70 17.47 0.13 29.19 1.11 15.66 1.04&#xA;17.15 -1.55 36.11 -1.49 10.87 -2.71 22.92 -2.72 26.77 -0.01 3.85 -0.46 9.93&#xA;-1.02 13.50 -0.55 3.57 -1.44 14.82 -1.98 25.00 -0.53 10.18 -1.22 33.18&#xA;-1.52 51.13 -0.49 29.30 -0.34 33.99 1.46 46.00 1.10 7.35 2.46 14.95 3.03&#xA;16.87 0.56 1.93 3.49 6.73 6.50 10.68 3.01 3.95 5.75 8.28 6.09 9.63 0.40&#xA;1.61 -0.23 4.12 -1.85 7.32 -1.36 2.68 -3.04 6.79 -3.74 9.13 -0.70 2.34&#xA;-0.94 4.59 -0.53 5.00 0.41 0.41 66.74 0.80 147.41 0.88 105.56 0.10 153.81&#xA;0.50 172.17 1.44 14.03 0.72 28.95 1.34 33.17 1.37 6.79 0.05 7.97 -0.22&#xA;10.25 -2.37 1.90 -1.78 2.58 -3.43 2.58 -6.24 0.00 -3.23 -1.89 -6.62 -12.35&#xA;-22.08 -6.79 -10.04 -16.52 -25.23 -21.61 -33.76 -5.10 -8.53 -14.00 -24.05&#xA;-19.78 -34.50 -7.75 -14.00 -27.28 -49.13 -39.75 -71.50 -5.06 -9.07 -14.95&#xA;-27.07 -21.98 -40.00 -7.03 -12.93 -15.36 -28.00 -18.52 -33.50 -5.94 -10.36&#xA;-21.46 -38.15 -29.03 -52.00 -4.81 -8.80 -12.92 -23.20 -18.01 -32.00 -5.09&#xA;-8.80 -16.65 -29.27 -25.69 -45.49 -9.04 -16.22 -16.79 -29.94 -17.24 -30.50&#xA;-0.44 -0.56 -5.05 -8.44 -10.25 -17.51 -5.19 -9.07 -11.79 -20.23 -14.65&#xA;-24.79 -2.86 -4.56 -10.61 -17.99 -17.21 -29.83 -6.60 -11.85 -15.19 -27.46&#xA;-19.08 -34.71 -3.90 -7.24 -12.28 -22.39 -18.63 -33.67 -6.35 -11.28 -12.40&#xA;-21.74 -13.45 -23.25 -1.05 -1.51 -2.21 -2.73 -2.59 -2.72 -0.38 0.02 -2.45&#xA;1.48 -4.61 3.24z" fill="#c9c90e" fill-rule="evenodd" stroke="#c9c90e" stroke-linejoin="round" stroke-width="0.80"/>
<path d="M2813.61 2806.75 c-1.33 2.06 -7.70 12.97 -14.15 24.25 -6.45 11.28 -13.86&#xA;24.10 -16.46 28.50 -2.60 4.40 -9.24 15.65 -14.74 25.00 -5.50 9.35 -16.09&#xA;27.80 -23.52 41.00 -7.43 13.20 -19.47 34.35 -26.76 47.00 -7.29 12.65 -22.23&#xA;39.20 -33.20 59.00 -10.98 19.80 -24.25 43.65 -29.51 53.00 -5.25 9.35 -20.45&#xA;36.12 -33.78 59.50 -22.15 38.85 -69.99 123.00 -72.77 128.00 -1.68 3.03&#xA;-16.19 28.22 -32.25 56.00 -16.05 27.78 -31.13 54.10 -33.51 58.50 -2.38 4.40&#xA;-6.18 10.93 -8.45 14.50 -2.27 3.57 -5.34 9.34 -6.82 12.82 -1.48 3.47 -2.69&#xA;7.42 -2.69 8.77 0.00 4.16 3.41 4.69 21.99 3.37 11.52 -0.82 58.83 -1.14&#xA;156.51 -1.08 l140.00 0.09 5.39 -5.05 c2.97 -2.78 8.84 -6.78 13.06 -8.90&#xA;4.21 -2.12 8.26 -4.57 8.99 -5.45 1.16 -1.39 0.40 -2.46 -5.81 -8.23 -6.67&#xA;-6.20 -7.13 -6.90 -7.13 -10.85 0.00 -2.32 0.47 -6.65 1.05 -9.61 0.77 -3.95&#xA;0.72 -8.95 -0.19 -18.73 -1.20 -12.84 -1.15 -13.94 1.41 -29.50 2.30 -13.96&#xA;2.58 -18.00 2.09 -29.66 -0.51 -12.16 -0.32 -14.60 1.98 -24.50 1.41 -6.05&#xA;3.03 -14.81 3.61 -19.47 0.58 -4.66 1.06 -16.14 1.08 -25.50 0.01 -9.36 0.53&#xA;-21.30 1.15 -26.53 0.62 -5.22 1.21 -19.62 1.30 -32.00 0.12 -14.84 0.73&#xA;-26.08 1.79 -33.00 0.89 -5.78 1.89 -14.55 2.23 -19.50 0.34 -4.95 0.05&#xA;-20.70 -0.65 -35.00 -0.70 -14.30 -1.21 -30.05 -1.13 -35.00 0.08 -5.23 1.42&#xA;-15.91 3.20 -25.50 2.85 -15.30 3.07 -18.14 3.07 -39.00 0.00 -12.89 0.64&#xA;-28.52 1.49 -36.59 0.89 -8.48 2.52 -17.44 4.09 -22.50 1.43 -4.62 3.66&#xA;-12.23 4.96 -16.91 1.30 -4.68 2.38 -10.62 2.41 -13.22 0.03 -2.60 -0.67&#xA;-9.57 -1.55 -15.50 -0.89 -6.01 -1.34 -12.99 -1.01 -15.78 0.33 -2.75 1.90&#xA;-9.54 3.49 -15.10 1.59 -5.55 3.21 -12.39 3.60 -15.20 1.01 -7.34 -1.49&#xA;-15.19 -6.61 -20.74 -2.22 -2.41 -5.99 -5.52 -8.38 -6.92 -2.39 -1.40 -4.82&#xA;-2.54 -5.40 -2.54 -0.58 0.00 -2.15 1.69 -3.48 3.75z" fill="#44ab36" fill-rule="evenodd" stroke="#44ab36" stroke-linejoin="round" stroke-width="0.80"/>
<path d="M1674.46 1345.69 c0.37 1.48 1.49 3.84 2.48 5.25 0.99 1.41 3.72 6.16 6.06&#xA;10.56 2.34 4.40 6.30 11.82 8.81 16.50 2.50 4.68 7.01 12.55 10.00 17.50 3.00&#xA;4.95 10.18 17.32 15.95 27.50 5.78 10.18 17.35 29.97 25.72 44.00 8.37 14.03&#xA;18.55 31.09 22.62 37.93 4.07 6.84 8.01 12.63 8.75 12.87 1.05 0.34 1.19&#xA;-0.32 0.62 -2.93 -0.40 -1.85 -3.38 -8.66 -6.62 -15.13 -3.24 -6.47 -6.94&#xA;-14.57 -8.24 -18.00 -1.29 -3.43 -4.18 -9.89 -6.43 -14.35 -2.24 -4.46 -8.40&#xA;-14.69 -13.68 -22.74 -5.28 -8.05 -14.56 -23.71 -20.61 -34.79 -6.05 -11.08&#xA;-14.59 -26.21 -18.97 -33.61 -4.38 -7.40 -10.09 -16.23 -12.69 -19.61 -2.60&#xA;-3.38 -6.24 -7.84 -8.10 -9.90 -1.86 -2.06 -4.05 -3.75 -4.87 -3.75 -1.12&#xA;0.00 -1.32 0.67 -0.82 2.69z" fill="#e18fbb" fill-rule="evenodd" stroke="#e18fbb" stroke-linejoin="round" stroke-width="0.80"/>
</svg>
