<svg xmlns="http://www.w3.org/2000/svg" width="1000" height="3030"><text x="20" y="30" font-family="Consolas, monospace" font-size="14" fill="#e0e0e0">📁 delta-os</text>
<path d="M 28 35 L 28 49 Q 28 54 33 54 L 44 54" fill="none" stroke="#666" stroke-width="2" />
<text x="52" y="60" font-family="Consolas, monospace" font-size="14" fill="#e0e0e0">📁 assets</text>
<path d="M 60 65 L 60 79 Q 60 84 65 84 L 76 84" fill="none" stroke="#666" stroke-width="2" />
<text x="84" y="90" font-family="Consolas, monospace" font-size="14" fill="#e0e0e0">📁 js</text>
<path d="M 92 95 L 92 109 Q 92 114 97 114 L 108 114" fill="none" stroke="#666" stroke-width="2" />
<text x="116" y="120" font-family="Consolas, monospace" font-size="14" fill="#e0e0e0">📃 init-funcs.js</text>
<path d="M 92 95 L 92 139 Q 92 144 97 144 L 108 144" fill="none" stroke="#666" stroke-width="2" />
<text x="116" y="150" font-family="Consolas, monospace" font-size="14" fill="#e0e0e0">📃 marked.min.js</text>
<path d="M 92 95 L 92 169 Q 92 174 97 174 L 108 174" fill="none" stroke="#666" stroke-width="2" />
<text x="116" y="180" font-family="Consolas, monospace" font-size="14" fill="#e0e0e0">📃 on-boot.js</text>
<path d="M 60 65 L 60 199 Q 60 204 65 204 L 76 204" fill="none" stroke="#666" stroke-width="2" />
<text x="84" y="210" font-family="Consolas, monospace" font-size="14" fill="#e0e0e0">📁 png</text>
<path d="M 92 215 L 92 229 Q 92 234 97 234 L 108 234" fill="none" stroke="#666" stroke-width="2" />
<text x="116" y="240" font-family="Consolas, monospace" font-size="14" fill="#e0e0e0">🖼️ app.png</text>
<path d="M 92 215 L 92 259 Q 92 264 97 264 L 108 264" fill="none" stroke="#666" stroke-width="2" />
<text x="116" y="270" font-family="Consolas, monospace" font-size="14" fill="#e0e0e0">🖼️ ask.png</text>
<path d="M 92 215 L 92 289 Q 92 294 97 294 L 108 294" fill="none" stroke="#666" stroke-width="2" />
<text x="116" y="300" font-family="Consolas, monospace" font-size="14" fill="#e0e0e0">🖼️ bg-experience.png</text>
<path d="M 92 215 L 92 319 Q 92 324 97 324 L 108 324" fill="none" stroke="#666" stroke-width="2" />
<text x="116" y="330" font-family="Consolas, monospace" font-size="14" fill="#e0e0e0">🖼️ bg-flower.png</text>
<path d="M 92 215 L 92 349 Q 92 354 97 354 L 108 354" fill="none" stroke="#666" stroke-width="2" />
<text x="116" y="360" font-family="Consolas, monospace" font-size="14" fill="#e0e0e0">🖼️ bg-glow.png</text>
<path d="M 92 215 L 92 379 Q 92 384 97 384 L 108 384" fill="none" stroke="#666" stroke-width="2" />
<text x="116" y="390" font-family="Consolas, monospace" font-size="14" fill="#e0e0e0">🖼️ bg-nodes.png</text>
<path d="M 92 215 L 92 409 Q 92 414 97 414 L 108 414" fill="none" stroke="#666" stroke-width="2" />
<text x="116" y="420" font-family="Consolas, monospace" font-size="14" fill="#e0e0e0">🖼️ bg-palm.png</text>
<path d="M 92 215 L 92 439 Q 92 444 97 444 L 108 444" fill="none" stroke="#666" stroke-width="2" />
<text x="116" y="450" font-family="Consolas, monospace" font-size="14" fill="#e0e0e0">🖼️ bg-paper.png</text>
<path d="M 92 215 L 92 469 Q 92 474 97 474 L 108 474" fill="none" stroke="#666" stroke-width="2" />
<text x="116" y="480" font-family="Consolas, monospace" font-size="14" fill="#e0e0e0">🖼️ bg-tree.png</text>
<path d="M 92 215 L 92 499 Q 92 504 97 504 L 108 504" fill="none" stroke="#666" stroke-width="2" />
<text x="116" y="510" font-family="Consolas, monospace" font-size="14" fill="#e0e0e0">🖼️ calc.png</text>
<path d="M 92 215 L 92 529 Q 92 534 97 534 L 108 534" fill="none" stroke="#666" stroke-width="2" />
<text x="116" y="540" font-family="Consolas, monospace" font-size="14" fill="#e0e0e0">🖼️ error.png</text>
<path d="M 92 215 L 92 559 Q 92 564 97 564 L 108 564" fill="none" stroke="#666" stroke-width="2" />
<text x="116" y="570" font-family="Consolas, monospace" font-size="14" fill="#e0e0e0">🖼️ file-explorer.png</text>
<path d="M 92 215 L 92 589 Q 92 594 97 594 L 108 594" fill="none" stroke="#666" stroke-width="2" />
<text x="116" y="600" font-family="Consolas, monospace" font-size="14" fill="#e0e0e0">🖼️ info.png</text>
<path d="M 92 215 L 92 619 Q 92 624 97 624 L 108 624" fill="none" stroke="#666" stroke-width="2" />
<text x="116" y="630" font-family="Consolas, monospace" font-size="14" fill="#e0e0e0">🖼️ manual.png</text>
<path d="M 92 215 L 92 649 Q 92 654 97 654 L 108 654" fill="none" stroke="#666" stroke-width="2" />
<text x="116" y="660" font-family="Consolas, monospace" font-size="14" fill="#e0e0e0">🖼️ none.png</text>
<path d="M 92 215 L 92 679 Q 92 684 97 684 L 108 684" fill="none" stroke="#666" stroke-width="2" />
<text x="116" y="690" font-family="Consolas, monospace" font-size="14" fill="#e0e0e0">🖼️ save.png</text>
<path d="M 92 215 L 92 709 Q 92 714 97 714 L 108 714" fill="none" stroke="#666" stroke-width="2" />
<text x="116" y="720" font-family="Consolas, monospace" font-size="14" fill="#e0e0e0">🖼️ warning.png</text>
<path d="M 60 65 L 60 739 Q 60 744 65 744 L 76 744" fill="none" stroke="#666" stroke-width="2" />
<text x="84" y="750" font-family="Consolas, monospace" font-size="14" fill="#e0e0e0">📁 svg</text>
<path d="M 92 755 L 92 769 Q 92 774 97 774 L 108 774" fill="none" stroke="#666" stroke-width="2" />
<text x="116" y="780" font-family="Consolas, monospace" font-size="14" fill="#e0e0e0">🖼️ arrow.svg</text>
<path d="M 92 755 L 92 799 Q 92 804 97 804 L 108 804" fill="none" stroke="#666" stroke-width="2" />
<text x="116" y="810" font-family="Consolas, monospace" font-size="14" fill="#e0e0e0">🖼️ battery.svg</text>
<path d="M 92 755 L 92 829 Q 92 834 97 834 L 108 834" fill="none" stroke="#666" stroke-width="2" />
<text x="116" y="840" font-family="Consolas, monospace" font-size="14" fill="#e0e0e0">🖼️ busy.svg</text>
<path d="M 92 755 L 92 859 Q 92 864 97 864 L 108 864" fill="none" stroke="#666" stroke-width="2" />
<text x="116" y="870" font-family="Consolas, monospace" font-size="14" fill="#e0e0e0">🖼️ clock.svg</text>
<path d="M 92 755 L 92 889 Q 92 894 97 894 L 108 894" fill="none" stroke="#666" stroke-width="2" />
<text x="116" y="900" font-family="Consolas, monospace" font-size="14" fill="#e0e0e0">🖼️ cursor.svg</text>
<path d="M 92 755 L 92 919 Q 92 924 97 924 L 108 924" fill="none" stroke="#666" stroke-width="2" />
<text x="116" y="930" font-family="Consolas, monospace" font-size="14" fill="#e0e0e0">🖼️ debug.svg</text>
<path d="M 92 755 L 92 949 Q 92 954 97 954 L 108 954" fill="none" stroke="#666" stroke-width="2" />
<text x="116" y="960" font-family="Consolas, monospace" font-size="14" fill="#e0e0e0">🖼️ ethernet.svg</text>
<path d="M 92 755 L 92 979 Q 92 984 97 984 L 108 984" fill="none" stroke="#666" stroke-width="2" />
<text x="116" y="990" font-family="Consolas, monospace" font-size="14" fill="#e0e0e0">🖼️ file.svg</text>
<path d="M 92 755 L 92 1009 Q 92 1014 97 1014 L 108 1014" fill="none" stroke="#666" stroke-width="2" />
<text x="116" y="1020" font-family="Consolas, monospace" font-size="14" fill="#e0e0e0">🖼️ files.svg</text>
<path d="M 92 755 L 92 1039 Q 92 1044 97 1044 L 108 1044" fill="none" stroke="#666" stroke-width="2" />
<text x="116" y="1050" font-family="Consolas, monospace" font-size="14" fill="#e0e0e0">🖼️ folder.svg</text>
<path d="M 92 755 L 92 1069 Q 92 1074 97 1074 L 108 1074" fill="none" stroke="#666" stroke-width="2" />
<text x="116" y="1080" font-family="Consolas, monospace" font-size="14" fill="#e0e0e0">🖼️ internet.svg</text>
<path d="M 92 755 L 92 1099 Q 92 1104 97 1104 L 108 1104" fill="none" stroke="#666" stroke-width="2" />
<text x="116" y="1110" font-family="Consolas, monospace" font-size="14" fill="#e0e0e0">🖼️ loader.svg</text>
<path d="M 92 755 L 92 1129 Q 92 1134 97 1134 L 108 1134" fill="none" stroke="#666" stroke-width="2" />
<text x="116" y="1140" font-family="Consolas, monospace" font-size="14" fill="#e0e0e0">🖼️ logo.svg</text>
<path d="M 92 755 L 92 1159 Q 92 1164 97 1164 L 108 1164" fill="none" stroke="#666" stroke-width="2" />
<text x="116" y="1170" font-family="Consolas, monospace" font-size="14" fill="#e0e0e0">🖼️ logo24.svg</text>
<path d="M 92 755 L 92 1189 Q 92 1194 97 1194 L 108 1194" fill="none" stroke="#666" stroke-width="2" />
<text x="116" y="1200" font-family="Consolas, monospace" font-size="14" fill="#e0e0e0">🖼️ manual.svg</text>
<path d="M 92 755 L 92 1219 Q 92 1224 97 1224 L 108 1224" fill="none" stroke="#666" stroke-width="2" />
<text x="116" y="1230" font-family="Consolas, monospace" font-size="14" fill="#e0e0e0">🖼️ pointer.svg</text>
<path d="M 92 755 L 92 1249 Q 92 1254 97 1254 L 108 1254" fill="none" stroke="#666" stroke-width="2" />
<text x="116" y="1260" font-family="Consolas, monospace" font-size="14" fill="#e0e0e0">🖼️ restart.svg</text>
<path d="M 92 755 L 92 1279 Q 92 1284 97 1284 L 108 1284" fill="none" stroke="#666" stroke-width="2" />
<text x="116" y="1290" font-family="Consolas, monospace" font-size="14" fill="#e0e0e0">🖼️ select.svg</text>
<path d="M 92 755 L 92 1309 Q 92 1314 97 1314 L 108 1314" fill="none" stroke="#666" stroke-width="2" />
<text x="116" y="1320" font-family="Consolas, monospace" font-size="14" fill="#e0e0e0">🖼️ settings.svg</text>
<path d="M 92 755 L 92 1339 Q 92 1344 97 1344 L 108 1344" fill="none" stroke="#666" stroke-width="2" />
<text x="116" y="1350" font-family="Consolas, monospace" font-size="14" fill="#e0e0e0">🖼️ some.svg</text>
<path d="M 92 755 L 92 1369 Q 92 1374 97 1374 L 108 1374" fill="none" stroke="#666" stroke-width="2" />
<text x="116" y="1380" font-family="Consolas, monospace" font-size="14" fill="#e0e0e0">🖼️ text.svg</text>
<path d="M 92 755 L 92 1399 Q 92 1404 97 1404 L 108 1404" fill="none" stroke="#666" stroke-width="2" />
<text x="116" y="1410" font-family="Consolas, monospace" font-size="14" fill="#e0e0e0">🖼️ turn.svg</text>
<path d="M 60 65 L 60 1429 Q 60 1434 65 1434 L 76 1434" fill="none" stroke="#666" stroke-width="2" />
<text x="84" y="1440" font-family="Consolas, monospace" font-size="14" fill="#e0e0e0">📁 ttf</text>
<path d="M 92 1445 L 92 1459 Q 92 1464 97 1464 L 108 1464" fill="none" stroke="#666" stroke-width="2" />
<text x="116" y="1470" font-family="Consolas, monospace" font-size="14" fill="#e0e0e0">📄 CascadiaCode-Italic-VariableFont_wght.ttf</text>
<path d="M 92 1445 L 92 1489 Q 92 1494 97 1494 L 108 1494" fill="none" stroke="#666" stroke-width="2" />
<text x="116" y="1500" font-family="Consolas, monospace" font-size="14" fill="#e0e0e0">📄 CascadiaCode-VariableFont_wght.ttf</text>
<path d="M 92 1445 L 92 1519 Q 92 1524 97 1524 L 108 1524" fill="none" stroke="#666" stroke-width="2" />
<text x="116" y="1530" font-family="Consolas, monospace" font-size="14" fill="#e0e0e0">📄 UbuntuSans-Italic-VariableFont_wdth,wght.ttf</text>
<path d="M 92 1445 L 92 1549 Q 92 1554 97 1554 L 108 1554" fill="none" stroke="#666" stroke-width="2" />
<text x="116" y="1560" font-family="Consolas, monospace" font-size="14" fill="#e0e0e0">📄 UbuntuSans-VariableFont_wdth,wght.ttf</text>
<path d="M 60 65 L 60 1579 Q 60 1584 65 1584 L 76 1584" fill="none" stroke="#666" stroke-width="2" />
<text x="84" y="1590" font-family="Consolas, monospace" font-size="14" fill="#e0e0e0">📁 wav</text>
<path d="M 92 1595 L 92 1609 Q 92 1614 97 1614 L 108 1614" fill="none" stroke="#666" stroke-width="2" />
<text x="116" y="1620" font-family="Consolas, monospace" font-size="14" fill="#e0e0e0">📄 error.wav</text>
<path d="M 92 1595 L 92 1639 Q 92 1644 97 1644 L 108 1644" fill="none" stroke="#666" stroke-width="2" />
<text x="116" y="1650" font-family="Consolas, monospace" font-size="14" fill="#e0e0e0">📄 information.wav</text>
<path d="M 92 1595 L 92 1669 Q 92 1674 97 1674 L 108 1674" fill="none" stroke="#666" stroke-width="2" />
<text x="116" y="1680" font-family="Consolas, monospace" font-size="14" fill="#e0e0e0">📄 padconnected.wav</text>
<path d="M 92 1595 L 92 1699 Q 92 1704 97 1704 L 108 1704" fill="none" stroke="#666" stroke-width="2" />
<text x="116" y="1710" font-family="Consolas, monospace" font-size="14" fill="#e0e0e0">📄 paddisconnected.wav</text>
<path d="M 92 1595 L 92 1729 Q 92 1734 97 1734 L 108 1734" fill="none" stroke="#666" stroke-width="2" />
<text x="116" y="1740" font-family="Consolas, monospace" font-size="14" fill="#e0e0e0">📄 question.wav</text>
<path d="M 92 1595 L 92 1759 Q 92 1764 97 1764 L 108 1764" fill="none" stroke="#666" stroke-width="2" />
<text x="116" y="1770" font-family="Consolas, monospace" font-size="14" fill="#e0e0e0">📄 warning.wav</text>
<path d="M 28 35 L 28 1789 Q 28 1794 33 1794 L 44 1794" fill="none" stroke="#666" stroke-width="2" />
<text x="52" y="1800" font-family="Consolas, monospace" font-size="14" fill="#e0e0e0">📄 cmd-icon.ico</text>
<path d="M 28 35 L 28 1819 Q 28 1824 33 1824 L 44 1824" fill="none" stroke="#666" stroke-width="2" />
<text x="52" y="1830" font-family="Consolas, monospace" font-size="14" fill="#e0e0e0">📃 cp.js</text>
<path d="M 28 35 L 28 1849 Q 28 1854 33 1854 L 44 1854" fill="none" stroke="#666" stroke-width="2" />
<text x="52" y="1860" font-family="Consolas, monospace" font-size="14" fill="#e0e0e0">📁 data</text>
<path d="M 60 1865 L 60 1879 Q 60 1884 65 1884 L 76 1884" fill="none" stroke="#666" stroke-width="2" />
<text x="84" y="1890" font-family="Consolas, monospace" font-size="14" fill="#e0e0e0">📁 mayum</text>
<path d="M 92 1895 L 92 1909 Q 92 1914 97 1914 L 108 1914" fill="none" stroke="#666" stroke-width="2" />
<text x="116" y="1920" font-family="Consolas, monospace" font-size="14" fill="#e0e0e0">📁 assets</text>
<path d="M 124 1925 L 124 1939 Q 124 1944 129 1944 L 140 1944" fill="none" stroke="#666" stroke-width="2" />
<text x="148" y="1950" font-family="Consolas, monospace" font-size="14" fill="#e0e0e0">📁 js</text>
<path d="M 156 1955 L 156 1969 Q 156 1974 161 1974 L 172 1974" fill="none" stroke="#666" stroke-width="2" />
<text x="180" y="1980" font-family="Consolas, monospace" font-size="14" fill="#e0e0e0">📃 marked.min.js</text>
<path d="M 92 1895 L 92 1999 Q 92 2004 97 2004 L 108 2004" fill="none" stroke="#666" stroke-width="2" />
<text x="116" y="2010" font-family="Consolas, monospace" font-size="14" fill="#e0e0e0">🖼️ favicon.svg</text>
<path d="M 92 1895 L 92 2029 Q 92 2034 97 2034 L 108 2034" fill="none" stroke="#666" stroke-width="2" />
<text x="116" y="2040" font-family="Consolas, monospace" font-size="14" fill="#e0e0e0">🌐 index.html</text>
<path d="M 92 1895 L 92 2059 Q 92 2064 97 2064 L 108 2064" fill="none" stroke="#666" stroke-width="2" />
<text x="116" y="2070" font-family="Consolas, monospace" font-size="14" fill="#e0e0e0">📁 node</text>
<path d="M 124 2075 L 124 2089 Q 124 2094 129 2094 L 140 2094" fill="none" stroke="#666" stroke-width="2" />
<text x="148" y="2100" font-family="Consolas, monospace" font-size="14" fill="#e0e0e0">🖥️ mayum.bat</text>
<path d="M 124 2075 L 124 2119 Q 124 2124 129 2124 L 140 2124" fill="none" stroke="#666" stroke-width="2" />
<text x="148" y="2130" font-family="Consolas, monospace" font-size="14" fill="#e0e0e0">📃 save.js</text>
<path d="M 124 2075 L 124 2149 Q 124 2154 129 2154 L 140 2154" fill="none" stroke="#666" stroke-width="2" />
<text x="148" y="2160" font-family="Consolas, monospace" font-size="14" fill="#e0e0e0">📄 undefined.md</text>
<path d="M 92 1895 L 92 2179 Q 92 2184 97 2184 L 108 2184" fill="none" stroke="#666" stroke-width="2" />
<text x="116" y="2190" font-family="Consolas, monospace" font-size="14" fill="#e0e0e0">📃 script.js</text>
<path d="M 92 1895 L 92 2209 Q 92 2214 97 2214 L 108 2214" fill="none" stroke="#666" stroke-width="2" />
<text x="116" y="2220" font-family="Consolas, monospace" font-size="14" fill="#e0e0e0">⚙️ style.css</text>
<path d="M 60 1865 L 60 2239 Q 60 2244 65 2244 L 76 2244" fill="none" stroke="#666" stroke-width="2" />
<text x="84" y="2250" font-family="Consolas, monospace" font-size="14" fill="#e0e0e0">📦 metadata.json</text>
<path d="M 28 35 L 28 2269 Q 28 2274 33 2274 L 44 2274" fill="none" stroke="#666" stroke-width="2" />
<text x="52" y="2280" font-family="Consolas, monospace" font-size="14" fill="#e0e0e0">🖥️ Delta OS Command Prompt.bat</text>
<path d="M 28 35 L 28 2299 Q 28 2304 33 2304 L 44 2304" fill="none" stroke="#666" stroke-width="2" />
<text x="52" y="2310" font-family="Consolas, monospace" font-size="14" fill="#e0e0e0">📄 Delta OS Command Prompt.lnk</text>
<path d="M 28 35 L 28 2329 Q 28 2334 33 2334 L 44 2334" fill="none" stroke="#666" stroke-width="2" />
<text x="52" y="2340" font-family="Consolas, monospace" font-size="14" fill="#e0e0e0">📄 Delta OS.url</text>
<path d="M 28 35 L 28 2359 Q 28 2364 33 2364 L 44 2364" fill="none" stroke="#666" stroke-width="2" />
<text x="52" y="2370" font-family="Consolas, monospace" font-size="14" fill="#e0e0e0">🖼️ favicon.svg</text>
<path d="M 28 35 L 28 2389 Q 28 2394 33 2394 L 44 2394" fill="none" stroke="#666" stroke-width="2" />
<text x="52" y="2400" font-family="Consolas, monospace" font-size="14" fill="#e0e0e0">🌐 index.html</text>
<path d="M 28 35 L 28 2419 Q 28 2424 33 2424 L 44 2424" fill="none" stroke="#666" stroke-width="2" />
<text x="52" y="2430" font-family="Consolas, monospace" font-size="14" fill="#e0e0e0">📄 link-icon.ico</text>
<path d="M 28 35 L 28 2449 Q 28 2454 33 2454 L 44 2454" fill="none" stroke="#666" stroke-width="2" />
<text x="52" y="2460" font-family="Consolas, monospace" font-size="14" fill="#e0e0e0">📁 node</text>
<path d="M 60 2465 L 60 2479 Q 60 2484 65 2484 L 76 2484" fill="none" stroke="#666" stroke-width="2" />
<text x="84" y="2490" font-family="Consolas, monospace" font-size="14" fill="#e0e0e0">📃 change-password.js</text>
<path d="M 60 2465 L 60 2509 Q 60 2514 65 2514 L 76 2514" fill="none" stroke="#666" stroke-width="2" />
<text x="84" y="2520" font-family="Consolas, monospace" font-size="14" fill="#e0e0e0">📃 change-username.js</text>
<path d="M 60 2465 L 60 2539 Q 60 2544 65 2544 L 76 2544" fill="none" stroke="#666" stroke-width="2" />
<text x="84" y="2550" font-family="Consolas, monospace" font-size="14" fill="#e0e0e0">📃 clear.js</text>
<path d="M 60 2465 L 60 2569 Q 60 2574 65 2574 L 76 2574" fill="none" stroke="#666" stroke-width="2" />
<text x="84" y="2580" font-family="Consolas, monospace" font-size="14" fill="#e0e0e0">📃 cli.js</text>
<path d="M 60 2465 L 60 2599 Q 60 2604 65 2604 L 76 2604" fill="none" stroke="#666" stroke-width="2" />
<text x="84" y="2610" font-family="Consolas, monospace" font-size="14" fill="#e0e0e0">📃 cp2.js</text>
<path d="M 60 2465 L 60 2629 Q 60 2634 65 2634 L 76 2634" fill="none" stroke="#666" stroke-width="2" />
<text x="84" y="2640" font-family="Consolas, monospace" font-size="14" fill="#e0e0e0">🖥️ delta-os.bat</text>
<path d="M 60 2465 L 60 2659 Q 60 2664 65 2664 L 76 2664" fill="none" stroke="#666" stroke-width="2" />
<text x="84" y="2670" font-family="Consolas, monospace" font-size="14" fill="#e0e0e0">📃 iconupdate.js</text>
<path d="M 60 2465 L 60 2689 Q 60 2694 65 2694 L 76 2694" fill="none" stroke="#666" stroke-width="2" />
<text x="84" y="2700" font-family="Consolas, monospace" font-size="14" fill="#e0e0e0">📃 install-app.js</text>
<path d="M 60 2465 L 60 2719 Q 60 2724 65 2724 L 76 2724" fill="none" stroke="#666" stroke-width="2" />
<text x="84" y="2730" font-family="Consolas, monospace" font-size="14" fill="#e0e0e0">📃 svgupdate.js</text>
<path d="M 60 2465 L 60 2749 Q 60 2754 65 2754 L 76 2754" fill="none" stroke="#666" stroke-width="2" />
<text x="84" y="2760" font-family="Consolas, monospace" font-size="14" fill="#e0e0e0">📃 uninstall-app.js</text>
<path d="M 60 2465 L 60 2779 Q 60 2784 65 2784 L 76 2784" fill="none" stroke="#666" stroke-width="2" />
<text x="84" y="2790" font-family="Consolas, monospace" font-size="14" fill="#e0e0e0">📃 who-am-i.js</text>
<path d="M 28 35 L 28 2809 Q 28 2814 33 2814 L 44 2814" fill="none" stroke="#666" stroke-width="2" />
<text x="52" y="2820" font-family="Consolas, monospace" font-size="14" fill="#e0e0e0">🌐 README.html</text>
<path d="M 28 35 L 28 2839 Q 28 2844 33 2844 L 44 2844" fill="none" stroke="#666" stroke-width="2" />
<text x="52" y="2850" font-family="Consolas, monospace" font-size="14" fill="#e0e0e0">📄 README.md</text>
<path d="M 28 35 L 28 2869 Q 28 2874 33 2874 L 44 2874" fill="none" stroke="#666" stroke-width="2" />
<text x="52" y="2880" font-family="Consolas, monospace" font-size="14" fill="#e0e0e0">📃 script.js</text>
<path d="M 28 35 L 28 2899 Q 28 2904 33 2904 L 44 2904" fill="none" stroke="#666" stroke-width="2" />
<text x="52" y="2910" font-family="Consolas, monospace" font-size="14" fill="#e0e0e0">⚙️ style.css</text>
<path d="M 28 35 L 28 2929 Q 28 2934 33 2934 L 44 2934" fill="none" stroke="#666" stroke-width="2" />
<text x="52" y="2940" font-family="Consolas, monospace" font-size="14" fill="#e0e0e0">📁 System Volume Information</text>
<path d="M 60 2945 L 60 2959 Q 60 2964 65 2964 L 76 2964" fill="none" stroke="#666" stroke-width="2" />
<text x="84" y="2970" font-family="Consolas, monospace" font-size="14" fill="#e0e0e0">📄 IndexerVolumeGuid</text>
<path d="M 60 2945 L 60 2989 Q 60 2994 65 2994 L 76 2994" fill="none" stroke="#666" stroke-width="2" />
<text x="84" y="3000" font-family="Consolas, monospace" font-size="14" fill="#e0e0e0">📄 WPSettings.dat</text>
</svg>